<svg id="error404" data-name="error404" xmlns="http://www.w3.org/2000/svg" viewBox="0 0 5000 321.62"><defs><style>.cls-1{fill:#2b3872;}.cls-2{fill:#4656a1;}.cls-3{fill:#38488c;}.cls-4{fill:#232851;}.cls-5{fill:#15172d;}.cls-6{fill:#2c447d;}</style></defs><path class="cls-1" d="M1988.75,323.3h-82.91A35.84,35.84,0,0,1,1870,287.46V223.9a35.73,35.73,0,0,1,12.59-27.27h0a35.66,35.66,0,0,1,23.24-8.56h82.91Z" transform="translate(-0.32 -94.87)"/><path class="cls-2" d="M2182,394H2016.41a46.31,46.31,0,0,1-46.31-46.32V163.73a46.31,46.31,0,0,1,46.31-46.31H2182Z" transform="translate(-0.32 -94.87)"/><rect class="cls-3" x="2039.45" y="237.45" width="321.62" height="36.46" rx="6.08" transform="translate(1944.26 2361.06) rotate(-90)"/><path class="cls-4" d="M2218.49,214.18V167.05H2331.2a23.56,23.56,0,0,1,23.56,23.57h0a23.56,23.56,0,0,1-23.56,23.56Z" transform="translate(-0.32 -94.87)"/><path class="cls-4" d="M2286.63,252.61h0a23.56,23.56,0,0,1,23.56,23.56V388.88a0,0,0,0,1,0,0h-47.13a0,0,0,0,1,0,0V276.17a23.56,23.56,0,0,1,23.56-23.56Z" transform="translate(2607.05 -2060.76) rotate(90)"/><path class="cls-3" d="M2182,394H2016.41a46.31,46.31,0,0,1-46.31-46.32V163.73a46.31,46.31,0,0,1,46.31-46.31C2030.2,316,2182,334.23,2182,334.23Z" transform="translate(-0.32 -94.87)"/><rect class="cls-1" x="2037.08" y="249.01" width="276.53" height="13.35" transform="translate(2430.72 -2014.54) rotate(90)"/><path class="cls-1" d="M2112,394h-95.61a46.31,46.31,0,0,1-46.31-46.32V218.53C1970.1,348.9,2112,394,2112,394Z" transform="translate(-0.32 -94.87)"/><rect class="cls-4" x="1898.16" y="251.35" width="135.23" height="8.66" transform="translate(2221.14 -1804.96) rotate(90)"/><rect class="cls-5" x="2203.17" y="182.37" width="47.13" height="16.5" transform="translate(2417.04 -2130.99) rotate(90)"/><rect class="cls-5" x="2203.17" y="312.49" width="47.13" height="16.5" transform="translate(2547.17 -2000.87) rotate(90)"/><path class="cls-4" d="M1970.1,323.3h-64.26A35.84,35.84,0,0,1,1870,287.46V223.9a35.73,35.73,0,0,1,12.59-27.27h0c-12.15,99.07,87.5,114.2,87.5,114.2Z" transform="translate(-0.32 -94.87)"/><path class="cls-1" d="M2971.25,323.3h82.91A35.84,35.84,0,0,0,3090,287.46V223.9a35.73,35.73,0,0,0-12.59-27.27h0a35.66,35.66,0,0,0-23.24-8.56h-82.91Z" transform="translate(-0.32 -94.87)"/><path class="cls-2" d="M2778,394h165.62a46.31,46.31,0,0,0,46.31-46.32V163.73a46.31,46.31,0,0,0-46.31-46.31H2778Z" transform="translate(-0.32 -94.87)"/><rect class="cls-3" x="2598.94" y="237.45" width="321.62" height="36.46" rx="6.08" transform="translate(2503.75 2920.55) rotate(-90)"/><path class="cls-3" d="M2778,394h165.62a46.31,46.31,0,0,0,46.31-46.32V163.73a46.31,46.31,0,0,0-46.31-46.31C2929.8,316,2778,334.23,2778,334.23Z" transform="translate(-0.32 -94.87)"/><rect class="cls-1" x="2646.39" y="249.01" width="276.53" height="13.35" transform="translate(3040.02 -2623.84) rotate(90)"/><path class="cls-1" d="M2848,394h95.61a46.31,46.31,0,0,0,46.31-46.32V218.53C2989.9,348.9,2848,394,2848,394Z" transform="translate(-0.32 -94.87)"/><rect class="cls-4" x="2926.61" y="251.35" width="135.23" height="8.66" transform="translate(3249.59 -2833.42) rotate(90)"/><path class="cls-4" d="M2989.9,323.3h64.26A35.84,35.84,0,0,0,3090,287.46V223.9a35.73,35.73,0,0,0-12.59-27.27h0c12.15,99.07-87.5,114.2-87.5,114.2Z" transform="translate(-0.32 -94.87)"/><rect class="cls-6" y="140.01" width="1869.68" height="41.61"/><rect class="cls-6" x="3089.69" y="144.29" width="1910.31" height="41.61"/></svg>