<?xml version="1.0" encoding="utf-8"?>
<!-- Generator: Adobe Illustrator 22.0.1, SVG Export Plug-In . SVG Version: 6.00 Build 0)  -->
<svg version="1.1" id="Layer_1" xmlns="http://www.w3.org/2000/svg" xmlns:xlink="http://www.w3.org/1999/xlink" x="0px" y="0px"
	 viewBox="0 0 886.3 245.9" style="enable-background:new 0 0 886.3 245.9;" xml:space="preserve">
<style type="text/css">
	.st0{fill:#303AB2;}
	.st1{fill:#353535;}
</style>
<g>
	<g>
		<path class="st0" d="M149.9,122.9c0,8.8-3.4,17-9.6,23.2c-6.2,6.2-14.5,9.6-23.2,9.6H117V134H95.1V112H117V90.1h0.1
			C135.2,90.1,149.9,104.8,149.9,122.9"/>
		<path class="st0" d="M183.7,62c-15.6-15.6-37.2-25.3-61-25.3c-47.6,0-86.3,38.6-86.3,86.3c0,23.8,9.7,45.4,25.3,61
			c15.6,15.6,37.2,25.3,61,25.3c23.8,0,45.4-9.6,61-25.3c15.6-15.6,25.3-37.2,25.3-61C209,99.1,199.3,77.6,183.7,62 M156.2,162.1
			c-10.5,10.5-24.4,16.2-39.2,16.2H117v-22.5H95.1V134H73.2V112h21.9V90.1H117V67.6h0.1c30.5,0,55.4,24.8,55.4,55.4
			C172.5,137.8,166.7,151.7,156.2,162.1"/>
	</g>
	<g>
		<path class="st1" d="M309.8,88.9c-4.5-3.2-9.8-5.6-15.6-7c-5.8-1.4-11.7-2.1-17.6-2.1h-31v85h31.9c5.8,0,11.5-0.8,17.2-2.4
			c5.6-1.6,10.8-4.2,15.3-7.7c4.5-3.5,8.2-8,10.9-13.3c2.8-5.4,4.2-11.9,4.2-19.3c0-7.9-1.4-14.7-4.2-20.2
			C318.1,96.6,314.4,92.2,309.8,88.9z M302.3,122.2c0,4.4-0.7,8.2-2.2,11.2c-1.4,3-3.4,5.4-5.8,7.1c-2.4,1.8-5.3,3.1-8.4,3.9
			c-3.2,0.8-6.6,1.2-10.1,1.2h-8.5V99h9c3.3,0,6.6,0.4,9.8,1.1c3.1,0.7,5.9,2,8.3,3.8c2.4,1.7,4.3,4.1,5.8,7
			C301.6,113.9,302.3,117.6,302.3,122.2z"/>
		<path class="st1" d="M392.6,105.9c-3.4-3-7.2-5.3-11.6-6.9c-4.4-1.6-9.1-2.4-14.1-2.4c-4.9,0-9.6,0.8-14.1,2.4
			c-4.5,1.6-8.3,3.9-11.6,6.9c-3.3,3-5.9,6.7-7.9,11c-1.9,4.3-2.9,9.2-2.9,14.5c0,5.4,1,10.2,2.9,14.6c1.9,4.4,4.6,8.1,7.9,11.1
			c3.3,3,7.2,5.4,11.6,7.1c4.5,1.7,9.1,2.5,14.1,2.5c5,0,9.7-0.8,14.1-2.5c4.4-1.7,8.3-4,11.6-7.1c3.3-3,6-6.7,7.9-11.1
			c1.9-4.4,2.9-9.2,2.9-14.6c0-5.4-1-10.2-2.9-14.5C398.6,112.6,395.9,108.9,392.6,105.9z M381.6,137.7c-0.7,2-1.7,3.9-3,5.5
			c-1.3,1.6-3,2.9-4.9,3.9c-1.9,1-4.2,1.5-6.7,1.5c-2.6,0-4.8-0.5-6.7-1.5c-1.9-1-3.6-2.3-4.9-3.9c-1.3-1.6-2.3-3.5-3-5.5
			c-0.7-2-1-4.1-1-6.2s0.3-4.2,1-6.2c0.7-2,1.6-3.8,2.9-5.4c1.3-1.5,2.9-2.8,4.8-3.8c1.9-1,4.2-1.5,6.7-1.5c2.6,0,4.8,0.5,6.7,1.5
			c1.9,1,3.6,2.2,4.9,3.8c1.3,1.5,2.3,3.3,3,5.4c0.7,2,1.1,4.1,1.1,6.2S382.2,135.6,381.6,137.7z"/>
		<path class="st1" d="M435.2,119.9c1.3-1.5,2.9-2.8,4.8-3.7c1.9-0.9,3.9-1.4,6.2-1.4c2.2,0,4.4,0.5,6.5,1.5c2.1,1,3.8,2.2,5,3.8
			l12.6-14.5c-1.3-1.3-2.9-2.5-4.7-3.6c-1.8-1.1-3.8-2-6-2.8c-2.2-0.7-4.4-1.3-6.7-1.8c-2.3-0.4-4.7-0.7-7.1-0.7
			c-5.1,0-9.9,0.8-14.4,2.4c-4.5,1.6-8.4,4-11.8,7c-3.3,3-5.9,6.7-7.8,11c-1.9,4.3-2.9,9.2-2.9,14.5c0,5.5,1,10.4,2.9,14.7
			c1.9,4.3,4.5,8,7.8,11c3.3,3,7.2,5.4,11.8,6.9c4.5,1.6,9.4,2.4,14.6,2.4c4.8,0,9.4-0.8,13.8-2.2c4.3-1.5,7.8-3.6,10.6-6.2
			l-12-14.7c-1.3,1.6-3.1,2.8-5.2,3.6c-2.2,0.8-4.3,1.3-6.5,1.3c-2.4,0-4.5-0.4-6.4-1.3c-1.9-0.9-3.5-2.1-4.9-3.6
			c-1.4-1.5-2.4-3.3-3.1-5.4c-0.7-2-1.1-4.2-1.1-6.5c0-2.3,0.4-4.5,1.1-6.5C432.8,123.2,433.8,121.4,435.2,119.9z"/>
		<path class="st1" d="M520.4,134.4c0,3.8-1,7.1-3,9.9c-2,2.8-4.9,4.2-8.7,4.2c-2,0-3.7-0.4-4.9-1.1c-1.2-0.7-2.2-1.8-3-3.1
			c-0.8-1.3-1.3-2.8-1.5-4.5c-0.3-1.7-0.4-3.4-0.4-5.3V98.8h-21.8v40.7c0,3.4,0.4,6.6,1.3,9.9c0.8,3.2,2.2,6.1,4.1,8.6
			c1.9,2.5,4.4,4.6,7.4,6.1s6.8,2.4,11.2,2.4c2.3,0,4.5-0.3,6.5-0.9c2.1-0.6,4-1.4,5.7-2.4c1.7-1,3.2-2.1,4.5-3.4
			c1.3-1.3,2.3-2.7,3.1-4.2h0.3v9.1h20.9V98.8h-21.7V134.4z"/>
		<polygon class="st1" points="647.1,79.9 634.3,132.8 620.3,80.6 620.1,79.9 597.7,79.9 583.5,132.7 571,79.9 547.3,79.9 
			571.4,164.9 592.9,164.9 608.7,110.7 624.5,164.9 645.9,164.9 670.1,79.9 		"/>
		<path class="st1" d="M721,105.1c-2.4-2.9-5.5-5-9.3-6.3c-3.8-1.4-8.5-2-14.1-2c-5.4,0-10.6,0.9-15.8,2.8
			c-5.2,1.9-9.7,4.6-13.6,8.3l11,11.8c2-1.9,4.5-3.4,7.3-4.8c2.9-1.3,5.8-2,8.9-2c3.3,0,6.2,0.8,8.5,2.3c2.3,1.5,3.4,3.9,3.4,7.2
			v1.1c-4.8,0-9.7,0.3-14.7,0.8c-5,0.5-9.6,1.6-13.7,3.2c-4.1,1.6-7.5,3.8-10,6.7c-2.6,2.9-3.9,6.7-3.9,11.5c0,3.9,0.7,7.1,2.2,9.8
			c1.5,2.6,3.4,4.8,5.8,6.3c2.3,1.6,4.9,2.7,7.7,3.4c2.8,0.7,5.6,1.1,8.2,1.1c4,0,7.6-0.8,11-2.2c3.4-1.5,5.9-3.6,7.6-6.3h0.4v7
			h19.8v-33.2c0-6-0.6-11.2-1.7-15.5C725.2,111.6,723.4,107.9,721,105.1z M708.1,138.2c0,4.1-1.2,7.4-3.5,9.9
			c-2.3,2.4-5.7,3.6-10.1,3.6c-1.1,0-2.2-0.1-3.3-0.3c-1.1-0.2-2.2-0.6-3-1.1c-0.9-0.5-1.6-1.2-2.2-2.1c-0.6-0.9-0.9-1.9-0.9-3.2
			c0-1.9,0.6-3.5,1.9-4.7c1.2-1.2,2.8-2.1,4.7-2.7c1.9-0.6,4.1-1,6.5-1.3c2.4-0.2,4.8-0.3,7.2-0.3h2.8V138.2z"/>
		<path class="st1" d="M774.9,96.9c-4.1,0-7.6,1.1-10.7,3.2c-3.1,2.1-5.5,4.9-7.1,8.3h-0.3v-9.5h-20.9v65.8h21.7v-33.8
			c0-1.3,0.3-2.9,0.8-4.6s1.4-3.4,2.6-4.9c1.2-1.5,2.8-2.8,4.8-3.8c2-1.1,4.4-1.6,7.3-1.6c0.9,0,1.8,0,2.7,0.1
			c0.9,0.1,1.9,0.3,2.8,0.5l0.9-19.2c-0.5-0.2-1.2-0.3-2-0.4C776.7,97,775.8,96.9,774.9,96.9z"/>
		<path class="st1" d="M847.2,117.4c-1.6-4.4-3.9-8.2-6.8-11.2c-2.9-3.1-6.4-5.4-10.4-7.1c-4.1-1.6-8.5-2.4-13.4-2.4
			c-5,0-9.7,0.8-14,2.5c-4.3,1.7-8.1,4-11.2,7.1s-5.7,6.7-7.5,11.1s-2.8,9.2-2.8,14.6c0,5.6,0.9,10.5,2.8,14.8
			c1.9,4.3,4.5,8,7.8,10.9c3.3,3,7.2,5.2,11.6,6.7c4.4,1.5,9.1,2.3,14,2.3c6.7,0,12.6-1.2,17.7-3.6c5.1-2.4,9.1-5.9,12.2-10.4
			l-15.1-9.5c-1.5,2-3.4,3.7-5.8,5c-2.4,1.3-5.3,1.9-8.7,1.9c-1.9,0-3.8-0.3-5.6-0.9c-1.8-0.6-3.4-1.5-4.9-2.6
			c-1.5-1.1-2.6-2.4-3.6-3.9c-0.9-1.5-1.5-3.2-1.7-5h47.7c0.1-0.8,0.1-1.6,0.1-2.5c0-0.9,0-1.8,0-2.6
			C849.6,126.9,848.8,121.8,847.2,117.4z M801.8,124.2c0.1-1.7,0.5-3.3,1.3-4.8c0.8-1.5,1.9-2.9,3.2-4c1.3-1.1,2.9-2,4.6-2.7
			s3.7-1,5.8-1c4.3,0,7.6,1.2,9.7,3.7c2.2,2.5,3.2,5.4,3.2,8.9H801.8z"/>
	</g>
</g>
</svg>
