<?xml version="1.0" encoding="UTF-8"?>
<svg id="Layer_1" data-name="Layer 1" xmlns="http://www.w3.org/2000/svg" viewBox="0 0 175.75 32.39">
  <defs>
    <style>
      .cls-1 {
        fill: #0089cf;
      }

      .cls-1, .cls-2 {
        fill-rule: evenodd;
        stroke-width: 0px;
      }

      .cls-2 {
        fill: #231f20;
      }
    </style>
  </defs>
  <path class="cls-2" d="m92.35,21.6l.05-1.4c-2.63.32-6.01-1.02-5.91-4.08,0-2.95,2.42-4.08,5.91-4.03v-1.45c-3.87-.11-8,1.07-8.11,5.48.05,4.08,3.49,5.8,8.06,5.48h0Z"/>
  <path class="cls-2" d="m60.72,21.87c3.06,0,5.58-2.58,5.58-5.75s-2.52-5.69-5.58-5.69-5.53,2.58-5.53,5.69,2.52,5.75,5.53,5.75h0Zm0-1.56c1.93,0,3.54-1.88,3.54-4.19s-1.61-4.13-3.54-4.13-3.49,1.88-3.49,4.13,1.56,4.19,3.49,4.19h0Z"/>
  <path class="cls-2" d="m145.89,21.87c3.06,0,5.53-2.58,5.53-5.75s-2.47-5.69-5.53-5.69-5.53,2.58-5.53,5.69,2.47,5.75,5.53,5.75h0Zm0-1.56c1.93,0,3.49-1.88,3.49-4.19s-1.56-4.13-3.49-4.13-3.49,1.88-3.49,4.13,1.56,4.19,3.49,4.19h0Z"/>
  <polygon class="cls-2" points="44.67 10.75 46.55 10.75 46.55 21.65 44.67 21.65 44.67 10.75 44.67 10.75"/>
  <polygon class="cls-2" points="80.54 10.75 82.42 10.75 82.42 21.65 80.54 21.65 80.54 10.75 80.54 10.75"/>
  <polygon class="cls-2" points="124.3 10.75 126.18 10.75 126.18 21.65 124.3 21.65 124.3 10.75 124.3 10.75"/>
  <path class="cls-2" d="m75.97,10.75h1.77v10.9h-1.56c-1.5-3.71-4.46-7.3-6.39-8.48v8.48h-1.77v-10.9h1.34c2.9,1.83,5.42,4.46,6.61,6.77v-6.77h0Z"/>
  <path class="cls-2" d="m136.98,10.75h1.77v10.9h-1.56c-1.5-3.71-4.46-7.3-6.39-8.48v8.48h-1.77v-10.9h1.34c2.9,1.83,5.42,4.46,6.61,6.77v-6.77h0Z"/>
  <path class="cls-2" d="m50.2,15.21c2.26,1.77,3.76,3.97,4.56,6.44h-2.09c-.54-1.56-2.42-4.56-5.1-6.18l4.51-4.73h2.31l-4.19,4.46h0Z"/>
  <polygon class="cls-2" points="93.16 21.65 94.98 21.65 98.04 14.56 101.75 21.65 103.9 21.65 98.1 10.59 93.16 21.65 93.16 21.65"/>
  <polygon class="cls-2" points="153.19 10.75 155.13 10.75 155.13 20.25 159.48 20.25 159.48 21.65 155.13 21.65 153.19 21.65 153.19 20.25 153.19 10.75 153.19 10.75"/>
  <path class="cls-2" d="m166.14,10.75v1.4h-2.79v9.5h-1.88v-9.5h-2.79v-1.4h7.46Z"/>
  <polygon class="cls-2" points="165.01 21.65 166.83 21.65 169.89 14.56 173.6 21.65 175.75 21.65 169.95 10.59 165.01 21.65 165.01 21.65"/>
  <path class="cls-2" d="m108.3,21.65h2.04c.48-2.36,1.02-4.78,1.56-7.14,1.24,1.99,2.09,4.13,2.85,6.23h1.4c.75-2.09,1.61-4.24,2.85-6.23.54,2.36,1.07,4.78,1.56,7.14h2.04c-1.02-3.71-1.72-7.36-3.11-11.06-1.4,1.88-3.22,5.1-4.03,7.36-.7-2.31-2.63-5.48-4.03-7.36-1.4,3.71-2.09,7.36-3.11,11.06h0Z"/>
  <path class="cls-1" d="m31.13,4.47c2.31,1.99,3.97,4.3,4.89,7.03,0,.21-.11.38-.27.38l-2.58.11-14.12.11H5.36l-4.4-.05c-.11-.05-.21-.16-.21-.32.27-1.18.86-2.15,1.45-3.17C6.38,1.94,14.06-.96,21.9.28c3.38.59,6.55,1.93,9.24,4.19h0Zm4.73,15.84c.21.05.27.21.21.43-2.09,6.77-9.02,11.12-15.9,11.6-7.46.48-14.61-2.68-18.31-8.97-.43-.86-.86-1.72-1.07-2.69-.05-.16.05-.27.16-.32l.64-.11,10.69-.05h21.1l2.47.11h0Zm.48-2.04c.48.32.11.91.05,1.34-.05.11-.05.21-.27.21l-2.69-.05-9.34-.54-6.12-.21-9.77.43-5.91.38c-.59,0-1.18.16-1.77,0-.21-.38-.32-.86-.27-1.29.38-.32.86-.11,1.34-.27l13.64.38h6.93l9.08-.27c1.66-.11,3.49-.11,5.1-.11h0Zm.43-1.77c.05.38.05.81-.05,1.18-.27.32-.64.16-.97.16l-6.77-.27-6.71-.32-8.16.05-5.58.16-7.41.48c-.27,0-.64.05-.91-.11-.21-.38-.21-.86-.16-1.34l.21-.11h1.72l10.95.43,6.66.05,5.1-.11,11.17-.48c.27.05.7-.11.91.21h0Zm-.11-1.99c.05.38.27,1.13-.16,1.4h-2.36l-9.29-.43h-8.38l-5.37.11-10.26.43c-.32-.11-.64.05-.81-.21-.05-.43-.05-.81,0-1.18.27-.38.7-.11,1.02-.21l11.49.64c3.17.05,6.55,0,9.61,0l6.66-.32,6.87-.43c.32,0,.75-.11.97.21h0Zm-.43-2.04c.21.38.38.86.21,1.34l-.16.11h-3.81l-9.4-.21-6.82-.05-6.55.16-8.05.21-1.18-.05c-.54-.27-.16-.86-.11-1.24.11-.11.16-.27.32-.27l2.68.05,8.06.43,7.25.32,12.83-.7c1.56-.11,3.06-.27,4.56-.27l.16.16h0Z"/>
</svg>