<svg id="Capa_1" data-name="Capa 1" xmlns="http://www.w3.org/2000/svg" xmlns:xlink="http://www.w3.org/1999/xlink" viewBox="0 0 76.78 10.26"><defs><style>.cls-1{fill:#fff;}.cls-2{fill:url(#Degradado_sin_nombre_21);}.cls-3{fill:#231f20;}</style><radialGradient id="Degradado_sin_nombre_21" cx="6.46" cy="337.31" r="7.02" gradientTransform="translate(0.14 -309.61) scale(1 0.93)" gradientUnits="userSpaceOnUse"><stop offset="0" stop-color="#8bbce5"/><stop offset="0.59" stop-color="#2675bc"/><stop offset="1" stop-color="#005186"/></radialGradient></defs><path class="cls-1" d="M12.34,7.25h0L6.59,6.91.87,7.25h0l.06.19s0,0,.06,0H12.22s.06,0,0,0A1.46,1.46,0,0,0,12.34,7.25Z" transform="translate(-0.63 -0.75)"/><path class="cls-1" d="M12.5,5.84c-.21,0-4.07-.18-5.91-.18s-5.7.2-5.91.18a.05.05,0,0,1-.05,0V6A.07.07,0,0,1,.68,6c.21,0,4.07.18,5.91.18s5.7-.19,5.91-.18a.07.07,0,0,1,.05,0V5.81A.05.05,0,0,1,12.5,5.84Z" transform="translate(-0.63 -0.75)"/><path class="cls-1" d="M12.44,6.55c-.17,0-4-.28-5.85-.27S.91,6.54.74,6.55a.08.08,0,0,1-.07,0,.69.69,0,0,0,0,.2s0,0,.06,0,4.59.12,5.82.12,5.79-.12,5.82-.12.06,0,.06,0a.69.69,0,0,1,0-.2A.06.06,0,0,1,12.44,6.55Z" transform="translate(-0.63 -0.75)"/><path class="cls-1" d="M.84,4.54h0l5.71.34,5.72-.34h0l-.06-.19s0,.05-.06.05H1s-.07,0-.06-.05A1.08,1.08,0,0,0,.84,4.54Z" transform="translate(-0.63 -0.75)"/><path class="cls-1" d="M.74,5.24c.17,0,4,.28,5.85.27s5.68-.26,5.85-.27a.08.08,0,0,1,.07,0,.63.63,0,0,0,0-.19s0,0-.06,0S7.83,5,6.6,5s-5.79.1-5.84.1-.06,0-.06,0a.63.63,0,0,1,0,.19A.08.08,0,0,1,.74,5.24Z" transform="translate(-0.63 -0.75)"/><path class="cls-2" d="M1,4.4H12.22s.07,0,0-.07A5.92,5.92,0,0,0,6.59.75,5.94,5.94,0,0,0,.91,4.33S.91,4.4,1,4.4ZM.7,5.84c.21,0,4.06-.18,5.91-.18s5.7.2,5.91.18c0,0,.05,0,.05,0a4,4,0,0,0-.05-.5.05.05,0,0,0-.06-.06h0c-.18,0-4,.28-5.86.27S.92,5.25.75,5.24a.08.08,0,0,0-.07,0h0c0,.16,0,.33,0,.5a.07.07,0,0,0,0,0Zm.06-.73C.81,5.11,5.35,5,6.58,5s5.79.13,5.82.13.06,0,.06-.06a4.94,4.94,0,0,0-.13-.52.05.05,0,0,0-.05,0h0l-5.71.34L.88,4.52s0,0,0,0a3.16,3.16,0,0,0-.13.53S.72,5.11.76,5.11ZM.91,7.44A5.93,5.93,0,0,0,6.59,11a6,6,0,0,0,5.69-3.58s0-.07-.06-.07H1c-.07,0-.09,0-.07.08ZM.63,6c0,.17,0,.34,0,.5s0,.06.06.06h0c.17,0,4-.28,5.85-.27s5.68.26,5.86.27a.08.08,0,0,0,.07,0h0a4.07,4.07,0,0,0,0-.5s0,0-.05,0c-.21,0-4.06.18-5.91.18S.9,6,.69,6C.65,6,.63,6,.63,6Zm.07.73c0,.18.08.35.13.53a.05.05,0,0,0,.05,0L6.59,7l5.71.34a.05.05,0,0,0,0,0h0a5.11,5.11,0,0,0,.13-.53s0-.06-.06-.06S7.84,6.8,6.6,6.8.82,6.67.78,6.67s-.08,0-.08,0Z" transform="translate(-0.63 -0.75)"/><path class="cls-3" d="M23.19,3.19a2.65,2.65,0,0,0-2.6,2.68,2.61,2.61,0,0,0,5.21.22V5.87A2.66,2.66,0,0,0,23.19,3.19Zm0,4.62c-.61,0-1.57-.45-1.57-1.92S22.58,4,23.19,4s1.57.45,1.57,1.93-1,1.9-1.56,1.9Z" transform="translate(-0.63 -0.75)"/><path class="cls-3" d="M63.25,3.19a2.65,2.65,0,0,0-2.6,2.68,2.6,2.6,0,1,0,5.2.22.81.81,0,0,0,0-.22A2.64,2.64,0,0,0,63.25,3.19Zm0,4.62c-.61,0-1.57-.45-1.57-1.92S62.64,4,63.25,4s1.57.45,1.57,1.93-1,1.9-1.57,1.9Z" transform="translate(-0.63 -0.75)"/><rect class="cls-3" x="15.02" y="2.56" width="0.98" height="5.16"/><rect class="cls-3" x="31.8" y="2.56" width="0.98" height="5.16"/><path class="cls-3" d="M37.68,4h.41l0-.71h-.58c-2,0-3.28,1.06-3.28,2.59S35.55,8.5,37.55,8.5a3.9,3.9,0,0,0,.58-.05l-.05-.69h-.4c-1.34,0-2.31-.65-2.31-1.86S36.29,4,37.68,4Z" transform="translate(-0.63 -0.75)"/><path class="cls-3" d="M30.34,6.39h0a9.26,9.26,0,0,0-3-3.09h-.69V8.47h.93l0-4h0a8.64,8.64,0,0,1,2.92,4h.82V3.32h-.93Z" transform="translate(-0.63 -0.75)"/><path class="cls-3" d="M58.93,6.39h0a9.26,9.26,0,0,0-3-3.09h-.68V8.47h.92l0-4h0a8.51,8.51,0,0,1,2.91,4h.82V3.32H58.9Z" transform="translate(-0.63 -0.75)"/><rect class="cls-3" x="52.4" y="2.56" width="0.98" height="5.16"/><path class="cls-3" d="M38.41,8.47h.92s1.4-3.27,1.45-3.36L42.49,8.5H43.6L40.81,3.17Z" transform="translate(-0.63 -0.75)"/><path class="cls-3" d="M74.6,3.17,72.22,8.48h.93l1.44-3.39L76.3,8.48h1.11Z" transform="translate(-0.63 -0.75)"/><path class="cls-3" d="M18.3,5.41l2-2.09H19.15L17,5.56a6.21,6.21,0,0,1,2.43,2.9h1A6.43,6.43,0,0,0,18.3,5.41Z" transform="translate(-0.63 -0.75)"/><polygon class="cls-3" points="67.02 2.56 66.03 2.56 66.03 7.72 69.02 7.72 69.02 6.98 67.02 6.98 67.02 2.56"/><polygon class="cls-3" points="72.18 2.56 68.57 2.56 68.57 3.3 69.89 3.3 69.89 7.72 70.86 7.72 70.86 3.3 72.18 3.3 72.18 2.56"/><path class="cls-3" d="M49.22,5.73a8.61,8.61,0,0,0-.31.83h0c-.09-.23-.22-.65-.32-.83A12.92,12.92,0,0,0,47,3.14c-.25.45-1.23,4.48-1.44,5.33h1L47.26,5h0A15.62,15.62,0,0,1,48.6,8h.62a16.78,16.78,0,0,1,1.34-3h0l.75,3.41h1c-.21-.86-1.19-4.87-1.44-5.33A13,13,0,0,0,49.22,5.73Z" transform="translate(-0.63 -0.75)"/></svg>