<svg width="188" height="56" viewBox="0 0 188 56" fill="none" xmlns="http://www.w3.org/2000/svg" class="c-nav-bar__desktop__logo__icon">
                <g clip-path="url(#clip0_1471_15015)">
                <path d="M173.493 0C169.584 0 166.413 3.07813 166.413 6.8736V27.4906L173.493 20.617H180.574C184.483 20.617 187.654 17.5389 187.654 13.7434V0H173.497H173.493ZM180.574 13.7434H173.493V6.8736H180.574V13.7472V13.7434Z" fill="#27AA27"></path>
                <path d="M143.177 32.3526V29.2251C143.373 29.1986 143.611 29.1758 143.826 29.1644C144.037 29.1492 144.241 29.1454 144.44 29.1454C145.57 29.1454 146.5 29.377 147.235 29.8438C147.97 30.3106 148.338 31.1456 148.338 32.3526V49.3146H144.659C144.061 49.3146 143.685 49.159 143.529 48.8439C143.373 48.5289 143.294 48.0735 143.294 47.4662L143.263 47.0639C143.001 47.3485 142.681 47.6446 142.301 47.9558C141.922 48.267 141.484 48.5593 140.988 48.825C140.491 49.0944 139.924 49.3146 139.283 49.4816C138.642 49.6524 137.911 49.7359 137.098 49.7359C134.533 49.7359 132.578 48.992 131.237 47.5079C129.896 46.0239 129.227 44.0199 129.227 41.4997L129.235 32.3488V29.2213C129.431 29.1948 129.665 29.172 129.88 29.1606C130.091 29.1454 130.299 29.1416 130.494 29.1416C131.624 29.1416 132.555 29.3732 133.29 29.84C134.025 30.3068 134.392 31.1419 134.392 32.3488V41.4579C134.392 42.7332 134.744 43.7163 135.459 44.407C136.175 45.1016 137.102 45.447 138.235 45.447C138.935 45.447 139.592 45.3141 140.202 45.0447C140.816 44.7752 141.34 44.3994 141.778 43.9212C142.215 43.4392 142.556 42.8812 142.806 42.2436C143.052 41.606 143.177 40.919 143.177 40.1827V32.3488V32.3526ZM123.75 48.0772C122.726 48.6314 121.611 49.102 120.391 49.4588C119.172 49.8156 117.885 49.994 116.525 49.994C114.402 49.994 112.459 49.6372 110.703 48.9198C108.948 48.2063 107.431 47.2081 106.156 45.929C104.882 44.6499 103.889 43.1431 103.181 41.4124C102.473 39.6779 102.117 37.7801 102.117 35.7192C102.117 33.6582 102.473 31.8288 103.181 30.0677C103.889 28.3066 104.889 26.7657 106.176 25.4486C107.466 24.1278 109.002 23.0841 110.785 22.3136C112.572 21.5431 114.539 21.1598 116.693 21.1598C118.081 21.1598 119.355 21.304 120.517 21.5924C121.678 21.8809 122.733 22.2718 123.683 22.769C124.633 23.2625 125.498 23.828 126.213 24.5225C126.51 24.811 126.921 25.2247 127.065 25.4069C127.23 25.6156 127.359 25.8472 127.456 26.1091C127.554 26.3709 127.574 26.6404 127.519 26.9175C127.433 27.3426 127.186 27.7373 126.772 28.1017C126.358 28.466 124.817 29.5591 124.196 29.8818C123.32 28.6938 122.307 27.7297 121.158 26.9934C119.965 26.2305 118.476 25.851 116.685 25.851C115.313 25.851 114.081 26.1166 112.986 26.6442C111.896 27.1756 110.961 27.8815 110.191 28.7659C109.421 29.6502 108.83 30.6826 108.428 31.8668C108.021 33.051 107.818 34.2921 107.818 35.5977C107.818 36.9034 108.021 38.1255 108.428 39.268C108.834 40.4104 109.417 41.4048 110.171 42.2436C110.926 43.0862 111.829 43.7542 112.881 44.2438C113.933 44.7334 115.113 44.9763 116.431 44.9763C117.635 44.9763 118.663 44.8397 119.52 44.5702C120.372 44.297 121.103 43.9592 121.705 43.5492C122.307 43.1431 122.812 42.7142 123.218 42.2626C123.625 41.8147 123.996 41.4276 124.332 41.1012C124.547 41.2454 125.666 42.0083 126.616 42.8585C126.811 43.0331 126.995 43.2039 127.155 43.386C127.316 43.5682 127.421 43.7428 127.472 43.9136C127.546 44.1603 127.562 44.3843 127.515 44.5816C127.468 44.779 127.37 45.0143 127.218 45.2838C127.136 45.4318 126.983 45.6292 126.76 45.8759C126.248 46.4376 124.825 47.4927 123.746 48.0772H123.75ZM99.3337 29.0809C99.0952 29.0581 98.6261 29.024 98.2234 29.024C97.3789 29.024 96.6282 29.1227 95.9714 29.32C95.3146 29.5174 94.7398 29.7603 94.2433 30.0412C93.7468 30.322 93.3167 30.6333 92.9531 30.9749C92.5895 31.3164 92.2884 31.6277 92.0578 31.9085C92.0578 31.9085 92.05 31.4645 91.9952 31.2329C91.8388 30.5991 91.4635 30.1133 90.8575 29.8058C90.2554 29.4984 89.5399 29.3428 88.7189 29.3428C88.4374 29.3428 88.1911 29.3504 87.9878 29.3618C87.7806 29.3732 87.6007 29.3921 87.4482 29.4187C87.2684 29.4453 87.112 29.468 86.9869 29.4946V49.3146H92.1477V38.5734C92.1477 37.8371 92.2845 37.1729 92.5621 36.577C92.8397 35.9811 93.2111 35.4725 93.6764 35.0474C94.1416 34.6223 94.6968 34.2959 95.338 34.072C95.9792 33.8442 96.6517 33.7304 97.3476 33.7304C97.8441 33.7304 98.2742 33.7607 98.6378 33.8139C99.0014 33.8708 99.3611 33.9695 99.7091 34.1099C99.8811 33.738 100.471 32.1135 100.632 31.5973C100.796 31.0811 100.843 30.5801 100.816 30.1892C100.796 29.9425 100.718 29.7413 100.577 29.5819C100.436 29.4225 100.256 29.3048 100.037 29.2213C99.8185 29.1416 99.5722 29.0961 99.3337 29.0733V29.0809ZM46.5879 43.8719C47.6083 44.8169 49.1527 45.6633 51.2248 45.6633C52.1592 45.6633 52.9881 45.4849 53.7192 45.132C54.4464 44.779 55.068 44.3121 55.5763 43.7314C56.0846 43.1507 56.4716 42.4941 56.7336 41.7578C56.9955 41.0215 57.1285 40.2586 57.1285 39.4653C57.1285 38.6151 57.0346 37.8257 56.843 37.0894C56.6515 36.353 56.3465 35.7078 55.9243 35.1575C55.502 34.6071 54.9547 34.1668 54.2861 33.8404C53.6136 33.514 52.7848 33.3508 51.7917 33.3508C51.0059 33.3508 50.2904 33.514 49.6492 33.8404C49.008 34.1668 48.4606 34.5843 48.0071 35.0929C47.5536 35.6015 47.2056 36.1595 46.9593 36.7705C46.713 37.3778 46.5879 37.9661 46.5879 38.5316V43.8719V43.8719ZM41.4701 29.4908C41.5991 29.468 41.7516 29.4415 41.9314 29.4149C42.0878 29.3921 42.2638 29.3732 42.471 29.358C42.6782 29.3466 42.9206 29.339 43.2021 29.339C44.0231 29.339 44.7386 29.4946 45.3407 29.802C45.9428 30.1095 46.322 30.5953 46.4784 31.2291C46.5097 31.3506 46.5253 31.529 46.5331 31.6732C46.7951 31.3886 47.1783 31.0697 47.5692 30.7585C47.9641 30.4473 48.4294 30.1626 48.9689 29.9083C49.5084 29.654 50.1183 29.4415 50.8065 29.2707C51.4907 29.0999 52.257 29.0164 53.1015 29.0164C54.6771 29.0164 56.0376 29.3124 57.191 29.9083C58.3444 30.5042 59.2983 31.2861 60.0568 32.2653C60.8153 33.2407 61.3822 34.3528 61.7615 35.5977C62.1407 36.8427 62.3284 38.1293 62.3284 39.4615C62.3284 41.0177 62.0938 42.3499 61.6285 43.4506C61.1633 44.5551 60.5807 45.5153 59.8809 46.3389C58.7158 47.6977 57.4373 48.6466 56.0533 49.1817C54.6692 49.7207 53.2461 49.9864 51.7878 49.9864C49.8955 49.9864 47.8351 49.2463 46.584 48.3657V55.2621C46.4589 55.3114 46.2204 55.3456 45.8685 55.3721C45.5166 55.3949 45.1296 55.4101 44.7034 55.4101C44.2772 55.4101 43.8667 55.3683 43.4797 55.2811C43.0887 55.1938 42.7446 55.0381 42.4436 54.8066C42.1425 54.5751 41.9041 54.2639 41.7281 53.8767C41.5522 53.4858 41.4662 52.9886 41.4662 52.3775V29.4908H41.4701ZM153.491 29.4035V25.3803C153.491 24.849 153.593 24.4163 153.796 24.0861C153.999 23.7559 154.265 23.494 154.594 23.3042C154.922 23.1106 155.289 22.9854 155.692 22.9209C156.099 22.8563 156.501 22.826 156.908 22.826C157.111 22.826 157.315 22.8298 157.514 22.8412C157.717 22.8525 157.905 22.8677 158.081 22.8905C158.284 22.9133 158.472 22.9322 158.652 22.955V29.4073H164.446L160.247 33.4837H158.652V42.1867C158.652 43.3177 158.847 44.1907 159.242 44.798C159.637 45.4052 160.302 45.7089 161.408 45.7089C161.78 45.7089 162.131 45.6481 162.46 45.5267C162.792 45.4052 163.089 45.2724 163.355 45.1282C163.621 44.9839 163.852 44.8283 164.051 44.6689C164.251 44.5095 164.387 44.388 164.469 44.3083C164.868 44.8966 165.173 45.4052 165.384 45.8341C165.595 46.263 165.701 46.6653 165.701 47.0449C165.701 47.3941 165.56 47.7395 165.283 48.0735C165.005 48.4113 164.614 48.7187 164.11 49.0033C163.605 49.2842 162.996 49.5157 162.28 49.6903C161.565 49.8649 160.931 49.9522 159.934 49.9522C158.937 49.9522 157.905 49.7435 157.119 49.4284C156.243 49.0755 155.536 48.5745 155 47.9216C154.461 47.2726 154.074 46.4869 153.843 45.5646C153.608 44.6461 153.495 43.6328 153.495 42.5283V33.4837H149.996V29.4073H153.495L153.491 29.4035ZM33.6155 42.2664C33.6155 42.775 33.4786 43.257 33.2011 43.7087C32.9235 44.1603 32.5677 44.5588 32.1298 44.8966C31.6919 45.2344 31.1876 45.5039 30.6206 45.7013C30.0537 45.8986 29.4634 45.9973 28.8495 45.9973C27.6258 45.9973 26.6992 45.7582 26.0737 45.2762C25.4481 44.7942 25.1353 44.13 25.1353 43.2798C25.1353 42.4296 25.4716 41.7312 26.1401 41.0936C26.8126 40.4559 27.9777 40.1371 29.6393 40.1371C29.9599 40.1371 30.347 40.1447 30.7966 40.1599C31.2501 40.1751 31.6802 40.1941 32.0868 40.2244C32.5833 40.2548 33.0916 40.2813 33.6155 40.3079V42.2626V42.2664ZM23.4385 29.9121C22.813 30.1968 22.3282 30.5042 21.9802 30.8268C21.6322 31.1494 21.4719 31.4721 21.4993 31.7909C21.5188 32.0186 21.644 32.3602 21.8864 32.8157C22.1249 33.2711 22.7152 34.0302 23.3838 34.6223C24.0523 34.1972 24.8265 33.8025 25.7022 33.4343C26.578 33.0662 27.7431 32.884 29.2014 32.884C30.5151 32.884 31.5785 33.1686 32.3957 33.7342C33.2128 34.2997 33.6194 35.0778 33.6194 36.0684V36.5352C33.0642 36.5086 32.5247 36.4783 32.0008 36.4517C31.5355 36.4251 31.0546 36.4024 30.5581 36.3872C30.0616 36.372 29.6119 36.3644 29.2014 36.3644C27.8604 36.3644 26.6367 36.52 25.5263 36.8313C24.4159 37.1425 23.4698 37.6017 22.6839 38.209C21.8981 38.8163 21.2843 39.5678 20.8464 40.4597C20.4085 41.3517 20.1895 42.3651 20.1895 43.4961C20.1895 44.6272 20.4007 45.5608 20.8229 46.3845C21.2452 47.2043 21.8003 47.8761 22.4845 48.3999C23.1687 48.9236 23.9272 49.3146 24.76 49.5689C25.5889 49.8232 26.4294 49.9522 27.2739 49.9522C28.6736 49.9522 29.9404 49.6979 31.0781 49.1893C32.2158 48.6807 33.0603 48.1 33.6155 47.4472C33.6155 48.0507 33.6937 48.5327 33.8501 48.8439C34.0065 49.159 34.3818 49.3146 34.98 49.3146H38.5574V35.9431C38.5574 34.8956 38.354 33.9277 37.9435 33.0358C37.5369 32.1439 36.9505 31.381 36.1959 30.7433C35.4374 30.1057 34.5264 29.6123 33.463 29.2593C32.3996 28.9063 31.211 28.7279 29.8973 28.7279C28.6736 28.7279 27.6024 28.8038 26.6836 28.9632C26.3082 29.0278 25.9485 29.0885 25.6123 29.1758C24.7874 29.3845 24.0641 29.6313 23.4385 29.9197V29.9121ZM19.4623 28.5723C19.1378 27.4375 18.5514 26.3709 17.7069 25.3765C16.8624 24.3821 15.7168 23.5471 14.2702 22.8677C12.8237 22.1883 10.9626 21.8505 8.68719 21.8505H3.41299C3.01029 21.8505 2.60369 21.8809 2.19708 21.9454C1.79438 22.0099 1.42686 22.139 1.09845 22.3288C0.770033 22.5185 0.504173 22.7804 0.300868 23.1106C0.097563 23.4408 -0.00408936 23.8735 -0.00408936 24.4049V49.3184H5.28965V41.6781H9.07816C10.3449 41.6781 11.6273 41.4883 12.9292 41.1088C14.2272 40.7292 15.4002 40.1371 16.4401 39.3325C17.4801 38.5278 18.3246 37.4955 18.9736 36.2316C19.6226 34.9715 19.9471 33.4571 19.9471 31.6884C19.9471 30.7433 19.7829 29.6996 19.4584 28.5647L19.4623 28.5723ZM12.7181 35.704C11.6938 36.6832 10.3175 37.1729 8.58945 37.1729H5.28965V26.3216H8.58945C10.2081 26.3216 11.5569 26.8378 12.6399 27.8664C13.719 28.8987 14.2585 30.2347 14.2585 31.8744C14.2585 33.514 13.7463 34.721 12.7181 35.7002V35.704ZM168.043 47.3561H167.324V47.0221H169.134V47.3561H168.414V49.3108H168.047V47.3561H168.043ZM171.206 47.8419L170.725 49.0337H170.268L169.763 47.7546V49.3108H169.384V47.0221H169.83L170.494 48.768L171.171 47.0221H171.581V49.3108H171.202V47.8419H171.206ZM81.3061 43.3671C81.4664 43.5113 82.3031 44.2742 82.9951 45.0864C83.1358 45.2534 83.2688 45.4166 83.3821 45.5836C83.4955 45.7544 83.562 45.91 83.5815 46.0581C83.6128 46.2706 83.5972 46.4566 83.5346 46.6198C83.4721 46.7792 83.3626 46.9614 83.2023 47.1701C83.1163 47.284 82.9677 47.432 82.7488 47.6104C81.6423 48.5251 80.2075 49.0717 78.8312 49.4816C77.6779 49.8194 76.3017 49.9902 74.6987 49.9902C73.0957 49.9902 71.5787 49.7207 70.2377 49.1855C68.8967 48.6466 67.7511 47.9065 66.805 46.9576C65.8588 46.0087 65.1277 44.8701 64.6195 43.5417C64.1073 42.2094 63.8532 40.7406 63.8532 39.1275C63.8532 37.6549 64.1073 36.2885 64.6195 35.0322C65.1277 33.7721 65.8432 32.6752 66.762 31.7415C67.6807 30.8078 68.7755 30.0715 70.0422 29.5326C71.309 28.9936 72.7165 28.7279 74.2608 28.7279C76.1257 28.7279 77.7092 29.0619 79.0072 29.7261C80.3052 30.3903 81.3452 31.2633 82.1349 32.3374C82.9208 33.4115 83.4916 34.6299 83.8396 35.9887C84.1875 37.3474 84.3635 38.7328 84.3635 40.1485V40.8696H69.057C69.057 41.606 69.2251 42.2702 69.5613 42.8661C69.8976 43.462 70.3354 43.9705 70.875 44.3956C71.4145 44.8207 72.0244 45.1471 72.7125 45.3711C73.3967 45.5988 74.0731 45.7089 74.7456 45.7089C75.7347 45.7089 76.6027 45.6178 77.3495 45.4318C78.0923 45.2496 78.7257 45.0371 79.2535 44.7942C79.7774 44.555 80.2075 44.3008 80.5437 44.0313C80.8799 43.7618 81.1341 43.5417 81.31 43.3709L81.3061 43.3671ZM79.0775 37.2564C79.0775 36.7478 78.9759 36.2392 78.7726 35.7268C78.5693 35.2182 78.2682 34.7589 77.8773 34.3452C77.4824 33.9353 76.9819 33.5937 76.3681 33.328C75.7543 33.0586 75.0545 32.9257 74.2686 32.9257C73.4241 32.9257 72.6734 33.0586 72.0166 33.328C71.3598 33.5975 70.8124 33.9353 70.3784 34.3452C69.9406 34.7551 69.6043 35.2144 69.3737 35.7268C69.1391 36.2354 69.0257 36.7478 69.0257 37.2564H79.0854H79.0775Z" fill="#3B3B3D"></path>
                </g>
                <defs>
                <clipPath id="clip0_1471_15015">
                <rect width="187.65" height="55.4139" fill="white"></rect>
                </clipPath>
                </defs>
            </svg>