<svg xmlns="http://www.w3.org/2000/svg" viewBox="0 0 200 22"><defs><style>.cls-1{fill:#f60;}</style></defs><title>header-logo</title><g id="Layer_2" data-name="Layer 2"><g id="Layer_1-2" data-name="Layer 1"><g id="Group_1" data-name="Group 1"><g id="Path_1" data-name="Path 1"><path class="cls-1" d="M44.92,12A5.2,5.2,0,0,1,43,10.68a5.84,5.84,0,0,1-1.33-1.92,5.55,5.55,0,0,1-.49-2.41,5.71,5.71,0,0,1,.49-2.41A5.8,5.8,0,0,1,43,2,6.7,6.7,0,0,1,44.92.64,6.42,6.42,0,0,1,47.33.15H75.42A2.09,2.09,0,0,1,77,.79a2.37,2.37,0,0,1,.64,1.57A2.15,2.15,0,0,1,77,3.94a2.09,2.09,0,0,1-1.58.64H47.24A1.64,1.64,0,0,0,46,5.07a1.68,1.68,0,0,0-.54,1.23A1.65,1.65,0,0,0,46,7.48,1.64,1.64,0,0,0,47.24,8H72.8a6.14,6.14,0,0,1,2.47.49A5.85,5.85,0,0,1,77.2,9.79a5.57,5.57,0,0,1,1.33,2A6.58,6.58,0,0,1,79,14.17a6.58,6.58,0,0,1-.49,2.41,6.61,6.61,0,0,1-1.33,2,5.73,5.73,0,0,1-1.92,1.28,6.86,6.86,0,0,1-2.47.44h-28a2.16,2.16,0,0,1-1.58-.64,2.25,2.25,0,0,1,0-3.15,2.09,2.09,0,0,1,1.58-.64H73a1.72,1.72,0,0,0,1.23-.49,1.6,1.6,0,0,0,.49-1.18,1.84,1.84,0,0,0-.49-1.23A1.64,1.64,0,0,0,73,12.45H47.33A5.05,5.05,0,0,1,44.92,12"/></g><g id="Path_2" data-name="Path 2"><path class="cls-1" d="M112.73,15.36a4.61,4.61,0,0,0,1.63-1.43,5,5,0,0,0,.79-1.82,8.19,8.19,0,0,0,.2-1.82,8.51,8.51,0,0,0-.2-1.82,5,5,0,0,0-.79-1.82,4.5,4.5,0,0,0-1.63-1.37,5.08,5.08,0,0,0-2.57-.59H91.46a5.14,5.14,0,0,0-2.62.59,5.4,5.4,0,0,0-1.58,1.38,5,5,0,0,0-.79,1.82,8.51,8.51,0,0,0-.2,1.82,12.77,12.77,0,0,0,.2,1.82,4.66,4.66,0,0,0,.79,1.82,5,5,0,0,0,1.58,1.43,5,5,0,0,0,2.62.59h18.71a5.08,5.08,0,0,0,2.57-.59m6.86-5.07a12.6,12.6,0,0,1-.54,3.54,11.29,11.29,0,0,1-1.68,3.25,8.7,8.7,0,0,1-2.66,2.36,6.61,6.61,0,0,1-3.55.94H90.08a6.43,6.43,0,0,1-3.36-1A9.58,9.58,0,0,1,84.2,17a10.21,10.21,0,0,1-1.58-3.2,10.67,10.67,0,0,1-.54-3.45,11.12,11.12,0,0,1,.6-3.54,10.43,10.43,0,0,1,1.68-3.2A8.7,8.7,0,0,1,87,1.23,7.08,7.08,0,0,1,90.57.3h21a6.43,6.43,0,0,1,3.36,1,9.58,9.58,0,0,1,2.52,2.36A10.21,10.21,0,0,1,119,6.9a9.13,9.13,0,0,1,.59,3.4"/></g><g id="Path_3" data-name="Path 3"><path class="cls-1" d="M158.44,8.71a2.08,2.08,0,0,1,.64,1.57,2.27,2.27,0,0,1-.64,1.57,2,2,0,0,1-1.58.64H132.92a2.38,2.38,0,0,1-1.58-.64,2.08,2.08,0,0,1-.64-1.57,2.15,2.15,0,0,1,.64-1.57,2.09,2.09,0,0,1,1.58-.64h23.94a2.2,2.2,0,0,1,1.58.64m-34.9-1.92a10.43,10.43,0,0,1,1.68-3.2,8.7,8.7,0,0,1,2.66-2.36A7.22,7.22,0,0,1,131.44.3h26.51a2.19,2.19,0,0,1,2.22,2.16s0,0,0,.06a2.15,2.15,0,0,1-.64,1.57,2.09,2.09,0,0,1-1.58.64H132.43a5.33,5.33,0,0,0-2.52.49,4.34,4.34,0,0,0-1.53,1.28,4.8,4.8,0,0,0-.74,1.73A7.65,7.65,0,0,0,127.4,10v8.17a2.19,2.19,0,0,1-2.16,2.21h-.06a2.16,2.16,0,0,1-1.58-.64,2.08,2.08,0,0,1-.64-1.57V10.29a10.83,10.83,0,0,1,.59-3.49"/></g><g id="Path_4" data-name="Path 4"><path class="cls-1" d="M197.78.25A2.19,2.19,0,0,1,200,2.4s0,0,0,.06a2,2,0,0,1-.59,1.48,2.38,2.38,0,0,1-1.43.74H188.7A4.54,4.54,0,0,0,185,6.79a5.37,5.37,0,0,0-.69,1.82,7.78,7.78,0,0,0-.2,1.77v7.88a2.08,2.08,0,0,1-.64,1.57,2,2,0,0,1-1.53.64,2.19,2.19,0,0,1-2.22-2.16s0,0,0-.06V10.38a9.49,9.49,0,0,1,.4-2.85,11.06,11.06,0,0,1,1.09-2.76H166a2.16,2.16,0,0,1-1.58-.64,2.08,2.08,0,0,1-.64-1.57A2.08,2.08,0,0,1,164.46,1,2.09,2.09,0,0,1,166,.35h31.74Z"/></g><g id="Path_5" data-name="Path 5"><path class="cls-1" d="M16.68,18.95a3,3,0,1,1,.89,2.17,2.89,2.89,0,0,1-.89-2.17M19.74,8.52a22.81,22.81,0,0,0,3.36-.2,10.81,10.81,0,0,0,3.16-.94A25.37,25.37,0,0,0,30.06,5c1.43-1,3.21-2.51,5.28-4.33A2.74,2.74,0,0,1,37,0,2.44,2.44,0,0,1,38.7.69a2.26,2.26,0,0,1,.69,1.67,2.06,2.06,0,0,1-.3,1,3.76,3.76,0,0,1-.64.84c-2.07,1.82-3.9,3.35-5.53,4.53a35.76,35.76,0,0,1-4.59,2.85,19.51,19.51,0,0,1-4.2,1.48,20.76,20.76,0,0,1-4.39.44,26.16,26.16,0,0,1-4.59-.39A18.62,18.62,0,0,1,11,11.66,32,32,0,0,1,6.47,8.81C4.89,7.63,3.06,6.1.94,4.28A2.71,2.71,0,0,1,.3,3.45,2.39,2.39,0,0,1,0,2.36,2.43,2.43,0,0,1,.69.69,2.27,2.27,0,0,1,2.37,0a1.94,1.94,0,0,1,.89.2A6.92,6.92,0,0,1,4,.69C6.12,2.51,7.9,3.94,9.33,5a25.37,25.37,0,0,0,3.8,2.36,11.3,11.3,0,0,0,3.21,1,33.51,33.51,0,0,0,3.41.2"/></g></g></g></g></svg>