<?xml version="1.0" encoding="utf-8"?>
<!-- Generator: Adobe Illustrator 24.1.2, SVG Export Plug-In . SVG Version: 6.00 Build 0)  -->
<svg version="1.1" id="Layer_1" xmlns="http://www.w3.org/2000/svg" xmlns:xlink="http://www.w3.org/1999/xlink" x="0px" y="0px"
	 viewBox="0 0 100 48.7" style="enable-background:new 0 0 100 48.7;" xml:space="preserve">
<style type="text/css">
	.st0{fill:#FFFFFF;}
</style>
<g>
	<path class="st0" d="M23.8,0.5C10.7,0.5,0,11.2,0,24.3s10.7,23.8,23.8,23.8c13.2,0,23.8-10.7,23.8-23.8S37,0.5,23.8,0.5z
		 M29.6,32.7v1.8h-4.9v0h-1.8V14.1h1.8v18.6H29.6z M23.8,44.3c-11,0-19.9-8.9-19.9-19.9S12.8,4.4,23.8,4.4c0.3,0,0.6,0,0.9,0l0,1.8
		c-0.3,0-0.6,0-0.9,0c-10,0-18.1,8.1-18.1,18.1c0,10,8.1,18.1,18.1,18.1c9.7,0,17.7-7.7,18.1-17.3l0-0.1H29.6v-1.8h14.1
		c0,0.4,0,0.7,0,1.1C43.7,35.3,34.8,44.3,23.8,44.3z M19.2,16.8c0,1.5-1.3,2.8-2.8,2.8c-1.5,0-2.8-1.3-2.8-2.8s1.3-2.8,2.8-2.8
		C17.9,14,19.2,15.2,19.2,16.8z"/>
	<path class="st0" d="M59.5,36h17v-5.1H65.7V12.5h-6.2V36z M97,14.1c-2-1.5-4.5-2.3-7.5-2.3C86,11.9,83,12.9,81,15
		c-2.2,2.2-3.3,5.3-3.3,9.2c0,4.1,1.2,7.6,3.4,9.8c1.7,1.7,4,2.6,6.6,2.6c5.8,0,7.1-3.5,7.1-3.5V36h5.2V22.7H89.6v4.2h4.8
		c0,0,0,5.2-4.9,5.2c-1.3,0-2.4-0.5-3.2-1.3c-1.3-1.3-2-3.6-2-6.5c0-4.8,1.9-7.7,5.1-7.7c2,0,3.5,1.2,3.9,3.1h6.6
		C99.6,17,98.8,15.6,97,14.1L97,14.1z"/>
</g>
</svg>
