<?xml version="1.0" encoding="utf-8"?>
<!-- Generator: Adobe Illustrator 24.1.2, SVG Export Plug-In . SVG Version: 6.00 Build 0)  -->
<svg version="1.1" id="Layer_1" xmlns="http://www.w3.org/2000/svg" xmlns:xlink="http://www.w3.org/1999/xlink" x="0px" y="0px"
	 viewBox="0 0 100 28.1" style="enable-background:new 0 0 100 28.1;" xml:space="preserve">
<style type="text/css">
	.st0{fill:#FFFFFF;}
</style>
<g>
	<path class="st0" d="M4.5,17.8c3.4,3.4,6.8,6.8,10.2,10.2c0,0,0,0.1,0,0.1c-0.4,0-0.9,0-1.3,0c-3.6-0.2-6.7-1.5-9.2-4.1
		c-2.3-2.3-3.7-5.1-4-8.3C-0.1,14,0,12.3,0.4,10.7c0.1-0.2,0.2-0.3,0.4-0.3c4.3,0,8.7,0,13,0c2,0,3.5,1.2,3.9,3
		c0.5,2.3-1.3,4.5-3.6,4.5c-3.1,0-6.1,0-9.2,0C4.8,17.8,4.7,17.8,4.5,17.8z"/>
	<path class="st0" d="M21.1,26.3c-1.2-1.2-2.3-2.3-3.4-3.4c0.3-0.1,0.6-0.3,0.9-0.4c3.5-1.9,5.5-5.7,4.9-9.6c-0.6-4.1-3.6-7.2-7.6-8
		c-0.5-0.1-1-0.1-1.6-0.1c-3.4,0-6.8,0-10.1,0c-0.1,0-0.2,0-0.4,0C4.9,3.2,6.4,2.1,8,1.4c2.7-1.3,5.5-1.7,8.4-1.2
		C22.4,1.2,27,6,28,11.9C28.9,18.1,25.7,23.7,21.1,26.3z"/>
	<path class="st0" d="M36,6.4c0.1,0,0.1,0,0.1,0c2.2,0,4.3,0,6.5,0.1c0.8,0,1.5,0.2,2.2,0.5c1.8,0.8,2.8,2.4,2.7,4.5
		c-0.1,2.6-1.7,4.4-4.2,5c-0.1,0-0.2,0-0.3,0.1c1.3,2.2,2.7,4.3,4,6.5c-0.1,0-0.2,0-0.3,0c-1.5,0-3,0-4.5,0c-0.2,0-0.3-0.1-0.4-0.3
		c-1-1.9-1.9-3.8-2.9-5.7c0-0.1-0.1-0.2-0.2-0.3c-0.3,2.1-0.7,4.2-1,6.2c-1.5,0-2.9,0-4.4,0C34.3,17.3,35.2,11.8,36,6.4z M39.9,9.6
		c-0.2,1.4-0.5,2.9-0.7,4.3c0.7,0,1.3,0,1.9,0c1.5-0.1,2.4-1.3,2.1-2.8c-0.1-0.6-0.5-1.1-1-1.3C41.5,9.5,40.7,9.5,39.9,9.6z"/>
	<path class="st0" d="M70.2,11.1c1.1,0,2.1,0.2,3.1,0.6c1.8,0.9,2.8,2.4,3,4.3c0.2,2-0.3,3.8-1.8,5.3c-1.2,1.3-2.8,1.8-4.5,2
		c-1.3,0.1-2.6-0.1-3.7-0.7c-1.5-0.8-2.3-2.1-2.6-3.8c-0.2-1.6,0-3.1,0.8-4.5c1.1-2,2.9-2.9,5.2-3.1C69.9,11.1,70.1,11.1,70.2,11.1z
		 M67.4,17.5c0,1.4,0.6,2.3,1.6,2.5c1,0.2,1.9-0.1,2.6-0.9c0.6-0.7,0.8-1.5,0.8-2.4c0-0.5-0.1-1.1-0.4-1.5c-0.7-0.9-2.3-1.1-3.3-0.3
		C67.8,15.6,67.5,16.6,67.4,17.5z"/>
	<path class="st0" d="M85.8,11.5c1.3,0,2.7,0,4,0c-0.1,0.8-0.2,1.6-0.4,2.3c-0.3,1.6-0.5,3.2-0.8,4.7c-0.1,0.5-0.2,1-0.4,1.5
		c-0.5,1.3-1.4,2.2-2.6,2.7c-1.9,0.8-3.9,0.8-5.9,0.1c-1.8-0.7-2.7-2.1-2.6-4.1c0.1-1.4,0.4-2.8,0.6-4.2c0.1-0.9,0.3-1.9,0.4-2.8
		c0-0.1,0-0.2,0.1-0.3c1.3,0,2.5,0,3.8,0c0.1,0,0.1,0,0.2,0c-0.2,1.5-0.5,2.9-0.7,4.3c-0.1,0.9-0.2,1.7-0.3,2.6c0,0.2,0,0.5,0,0.7
		c0.1,0.8,0.7,1.2,1.5,1.2c0.9,0,1.5-0.5,1.7-1.3c0.2-0.8,0.4-1.7,0.5-2.6C85.3,14.7,85.5,13.1,85.8,11.5z"/>
	<path class="st0" d="M54.5,19.2c0.5,0.3,1,0.6,1.5,0.8c0.6,0.3,1.1,0.5,1.8,0.5c0.3,0,0.7-0.1,0.9-0.2c0.6-0.3,0.6-1,0.1-1.4
		c-0.4-0.3-0.9-0.4-1.3-0.7c-0.5-0.3-1.1-0.5-1.6-0.7c-1.8-1-2.1-3.2-0.8-4.8c0.8-0.9,1.8-1.3,2.9-1.5c1.8-0.3,3.4,0.1,5,1
		c0.1,0,0.1,0.1,0.2,0.1c-0.4,0.9-0.8,1.7-1.2,2.5c-0.4-0.2-0.9-0.5-1.3-0.7c-0.5-0.3-1.1-0.4-1.7-0.3c-0.1,0-0.3,0.1-0.4,0.1
		c-0.3,0.1-0.5,0.3-0.5,0.7c0,0.3,0.2,0.6,0.5,0.7c0.6,0.3,1.3,0.5,1.9,0.8c0.4,0.2,0.7,0.4,1,0.6c1.8,1.1,1.7,2.9,1.2,4.2
		c-0.5,1.1-1.4,1.7-2.5,2.1c-2.5,0.7-4.9,0.3-7.1-1C53.6,21,54,20.1,54.5,19.2z"/>
	<path class="st0" d="M93.5,22.8c-1.4,0-2.7,0-4.1,0c0.9-5.8,1.9-11.6,2.8-17.5c1.4,0,2.7,0,4.1,0C95.4,11.2,94.5,17,93.5,22.8z"/>
	<path class="st0" d="M49.4,11.5c1.4,0,2.7,0,4.1,0c-0.6,3.8-1.2,7.6-1.8,11.4c-1.4,0-2.7,0-4.1,0C48.2,19.1,48.8,15.3,49.4,11.5z"
		/>
	<path class="st0" d="M2.6,5.9c0.2-0.4,0.4-0.7,1-0.7c3.5,0,6.9,0,10.4,0c4.2,0,7.8,2.8,8.7,6.9c1,4.2-1.4,8.6-5.4,10.1
		c-0.2,0.1-0.3,0.1-0.4-0.1c-0.1-0.1-0.2-0.2-0.4-0.3c0.5-0.2,0.9-0.4,1.4-0.6c3.1-1.7,4.7-5,4.2-8.3C21.6,9.4,19,6.7,15.5,6
		c-0.5-0.1-1-0.1-1.5-0.1c-3.7,0-7.4,0-11.1,0C2.9,5.9,2.8,5.9,2.6,5.9z"/>
	<path class="st0" d="M15.5,20.9c0.6-0.3,1.2-0.4,1.7-0.7c2.5-1.3,4-4.1,3.6-7C20.5,10,18,7.7,15.1,7.3c-0.4-0.1-0.9-0.1-1.3-0.1
		c-3.9,0-7.8,0-11.6,0c-0.1,0-0.2,0-0.4,0c0.2-0.6,0.3-0.6,0.9-0.6c3.7,0,7.5,0,11.2,0c3.8,0,6.9,2.5,7.5,6.2
		c0.7,3.8-1.6,7.4-5.2,8.5c-0.2,0.1-0.3,0-0.4-0.1C15.8,21.1,15.6,21,15.5,20.9z"/>
	<path class="st0" d="M14.4,19.7c0.5-0.1,1-0.2,1.5-0.4c2.5-0.8,4-3.2,3.8-5.9c-0.2-2.5-2.2-4.6-4.7-5c-0.3,0-0.5-0.1-0.8-0.1
		c-4.2,0-8.4,0-12.6,0c-0.1,0-0.2,0-0.4,0c0.1-0.2,0.2-0.4,0.3-0.6c0.1-0.1,0.2-0.1,0.3-0.1c1.4,0,2.8,0,4.2,0c2.7,0,5.5,0,8.2,0
		c3.1,0,5.8,2.4,6.2,5.4c0.4,3.4-1.7,6.4-5.1,7c-0.2,0-0.3,0-0.4-0.1C14.7,20,14.6,19.9,14.4,19.7z"/>
	<path class="st0" d="M13.2,18.5c0.5,0,1,0,1.4-0.1c2.1-0.3,3.8-2.1,3.8-4.3c0-2.2-1.6-4-3.7-4.3c-0.2,0-0.4,0-0.7,0
		c-4.3,0-8.6,0-12.9,0c-0.1,0-0.2,0-0.4,0c0.1-0.2,0.1-0.4,0.2-0.5c0,0,0.1-0.1,0.1-0.1c0.1,0,0.1,0,0.2,0c4.2,0,8.5,0,12.7,0
		c2.5,0,4.5,1.7,5,4.1c0.5,2.7-1.5,5.5-4.3,5.9c0,0,0,0-0.1,0C14.1,19.2,13.5,19.1,13.2,18.5z"/>
	<path class="st0" d="M95.5,21c0-1.3,1-2.3,2.3-2.3c1.3,0,2.3,1,2.3,2.3c0,1.3-1,2.3-2.3,2.3C96.5,23.3,95.5,22.2,95.5,21z"/>
	<path class="st0" d="M54.1,8.1c0,1.2-1,2.2-2.2,2.2c-1.2,0-2.1-1-2.1-2.2c0-1.2,1-2.1,2.2-2.1C53.1,5.9,54.1,6.8,54.1,8.1z"/>
	<path class="st0" d="M6.1,18.4c0.2,0,0.5,0,0.7,0c0.1,0,0.2,0.1,0.3,0.1c3.1,3.1,6.1,6.1,9.2,9.2c0,0,0.1,0.1,0.1,0.2
		c-0.4,0.1-0.8,0.2-1.2-0.2c-3-3-5.9-6-8.9-8.9c-0.1-0.1-0.2-0.1-0.3-0.2C6,18.5,6,18.5,6.1,18.4z"/>
	<path class="st0" d="M7.8,18.4c0.3,0,0.5,0,0.8,0c0.1,0,0.1,0.1,0.2,0.1c3,3,6,6,9,9c0,0,0,0,0.1,0.1c-0.2,0.1-0.4,0.1-0.6,0.2
		c-0.1,0-0.2,0-0.2-0.1C13.9,24.6,10.9,21.6,7.8,18.4C7.8,18.5,7.8,18.5,7.8,18.4z"/>
	<path class="st0" d="M9.6,18.4c0.2,0,0.5,0,0.7,0c0.1,0,0.2,0.1,0.2,0.1c2.8,2.8,5.7,5.7,8.5,8.5c0,0,0,0.1,0.1,0.1
		c-0.1,0-0.2,0.1-0.3,0.1c-0.2,0.1-0.4,0.1-0.5-0.1c-1.3-1.4-2.7-2.7-4.1-4.1c-1.5-1.5-2.9-2.9-4.4-4.4C9.8,18.7,9.7,18.6,9.6,18.4
		C9.6,18.5,9.6,18.5,9.6,18.4z"/>
	<path class="st0" d="M11.4,18.4c0.2,0,0.5,0,0.7,0c0.1,0,0.2,0,0.2,0.1c2.7,2.7,5.3,5.3,8,8c0,0,0,0,0.1,0.1
		c-0.2,0.1-0.3,0.2-0.5,0.2c-0.1,0-0.2,0-0.3-0.1c-0.5-0.5-1.1-1.1-1.6-1.6c-2.2-2.2-4.3-4.3-6.5-6.5C11.6,18.7,11.5,18.6,11.4,18.4
		C11.4,18.5,11.4,18.5,11.4,18.4z"/>
</g>
</svg>
