<?xml version="1.0" encoding="utf-8"?>
<!-- Generator: Adobe Illustrator 24.1.2, SVG Export Plug-In . SVG Version: 6.00 Build 0)  -->
<svg version="1.1" id="Layer_1" xmlns="http://www.w3.org/2000/svg" xmlns:xlink="http://www.w3.org/1999/xlink" x="0px" y="0px"
	 viewBox="0 0 100 26.7" style="enable-background:new 0 0 100 26.7;" xml:space="preserve">
<style type="text/css">
	.st0{fill:#FFFFFF;}
</style>
<g>
	<path class="st0" d="M97.6,25.3c0-0.7,0.6-1.2,1.2-1.2s1.2,0.5,1.2,1.2c0,0.7-0.6,1.2-1.2,1.2C98.1,26.5,97.6,26,97.6,25.3z
		 M98.8,26.3c0.5,0,1-0.4,1-1c0-0.6-0.4-1-1-1c-0.5,0-1,0.4-1,1S98.2,26.3,98.8,26.3z M98.6,25.9h-0.2v-1.2h0.5
		c0.3,0,0.4,0.1,0.4,0.3c0,0.2-0.1,0.3-0.3,0.3l0.3,0.5h-0.2l-0.3-0.5h-0.2V25.9z M98.8,25.2c0.2,0,0.3,0,0.3-0.2
		c0-0.2-0.1-0.2-0.3-0.2h-0.3v0.4H98.8z"/>
	<path class="st0" d="M89.1,12.1V9.6c0-1.3-0.5-2.7-2.5-2.7c-0.8,0-1.5,0.2-2,0.5v1C85,8,85.8,7.8,86.4,7.8c1.4,0,1.5,1,1.5,1.6v0.1
		c-2.6,0-4,0.9-4,2.5c0,1,0.7,1.9,2,1.9c0.9,0,1.7-0.5,2-1h0l0.1,0.8h1.1C89.1,13.3,89.1,12.7,89.1,12.1z M87.9,11.5
		c0,0.1,0,0.3-0.1,0.4c-0.2,0.6-0.7,1.1-1.6,1.1c-0.6,0-1.1-0.4-1.1-1.2c0-1.3,1.5-1.5,2.8-1.5L87.9,11.5L87.9,11.5z"/>
	<g>
		<g>
			<rect x="46.5" y="4.6" class="st0" width="1.2" height="1.2"/>
		</g>
		<path class="st0" d="M46.5,7.1v6.6h1.2V7.1H46.5z"/>
	</g>
	<g>
		<g>
			<rect x="73.4" y="4.6" class="st0" width="1.2" height="1.2"/>
		</g>
		<path class="st0" d="M73.4,7.1v6.6h1.2V7.1H73.4z"/>
	</g>
	<path class="st0" d="M36.1,4.5v5.5c0,2-0.9,3-2.2,3c-1.2,0-2.2-0.9-2.2-3V4.5h-1.2v5.5c0,2.9,1.4,4,3.3,4c2,0,3.5-1.2,3.5-4V4.5
		H36.1z"/>
	<path class="st0" d="M42.4,6.9c-1.1,0-1.9,0.6-2.2,1.2h0l-0.1-1.1H39c0,0.5,0.1,1.1,0.1,1.8v4.8h1.2v-4c0-0.2,0-0.4,0.1-0.6
		c0.2-0.7,0.8-1.2,1.6-1.2c1.1,0,1.5,0.9,1.5,2v3.8h1.2v-4C44.8,7.5,43.3,6.9,42.4,6.9z"/>
	<path class="st0" d="M53.9,7.1l-1.3,3.7c-0.2,0.6-0.4,1.2-0.6,1.7h0c-0.1-0.5-0.3-1.1-0.5-1.7l-1.3-3.7h-1.3l2.5,6.6h1.2l2.6-6.6
		H53.9z"/>
	<path class="st0" d="M66,6.9c-0.8,0-1.5,0.5-1.8,1.2h0l-0.1-1.1H63c0,0.6,0.1,1.3,0.1,2.1v4.6h1.2v-3.5c0-0.2,0-0.4,0.1-0.6
		c0.2-0.9,0.8-1.5,1.6-1.5c0.2,0,0.3,0,0.4,0V7C66.2,6.9,66.1,6.9,66,6.9z"/>
	<path class="st0" d="M96.6,12V4h-1.2v4h0c-0.3-0.5-1-1-2-1c-1.6,0-3,1.3-3,3.5c0,2,1.2,3.4,2.8,3.4c1.1,0,1.9-0.6,2.3-1.3h0
		l0.1,1.2h1.1C96.6,13.3,96.6,12.6,96.6,12z M95.4,10.9c0,0.2,0,0.4-0.1,0.5c-0.2,0.9-1,1.5-1.8,1.5c-1.3,0-2-1.3-2-2.6
		c0-1.5,0.7-2.5,2-2.5c0.9,0,1.6,0.7,1.7,1.5c0,0.2,0.1,0.4,0.1,0.5V10.9z"/>
	<g>
		<path class="st0" d="M67.3,13.3v-1.1c0.6,0.5,1.7,0.8,2.3,0.8c0.8,0,1.3-0.4,1.3-1s-0.7-0.9-1.6-1.1c-1.1-0.3-2.1-0.8-2.1-2
			c0-1.2,1-1.9,2.5-1.9c0.7,0,1.5,0.3,1.9,0.5v1c0,0-0.9-0.6-1.9-0.6c-0.8,0-1.3,0.4-1.3,0.9c0,0.5,0.6,0.8,1.5,1.1
			c1.1,0.3,2.2,0.7,2.2,2s-1,2.1-2.5,2.1C68.8,13.9,68.1,13.7,67.3,13.3z"/>
	</g>
	<path class="st0" d="M65.3,18.5h-2.2v-1.8h2.2V18.5z M63.2,19.5h2.2v6.9h-2.2L63.2,19.5z"/>
	<path class="st0" d="M88.8,18.5h-2.2v-1.8h2.2V18.5z M86.6,19.5h2.2v6.9h-2.2V19.5z"/>
	<path class="st0" d="M67.1,16.4h2.2v10.1h-2.2V16.4z"/>
	<path class="st0" d="M50.9,21.7c0-0.9,0-1.6-0.1-2.2h1.9l0.1,0.9h0c0.3-0.4,0.9-1.1,2.1-1.1c0.9,0,1.6,0.5,1.9,1.2h0.1
		c0.5-0.7,1.2-1.2,2.2-1.2c1.3,0,2.4,1,2.4,3.1v4.1h-2.2v-3.9c0-1-0.3-1.6-1-1.6c-0.6,0-1.1,0.6-1.1,1.3v4.2h-2.2v-4
		c0-0.9-0.3-1.5-1-1.5c-0.7,0-1.1,0.6-1.1,1.3v4.2h-2.2L50.9,21.7L50.9,21.7z"/>
	<path class="st0" d="M78.4,21.7c0-0.9,0-1.6-0.1-2.2h1.9l0.1,0.9h0c0.3-0.4,1-1.2,2.1-1.2c1.5,0,2.5,1,2.5,3v4.1h-2.2v-4
		c0-0.9-0.3-1.5-1.1-1.5c-0.7,0-1.2,0.6-1.2,1.3v4.2h-2.2L78.4,21.7L78.4,21.7z"/>
	<g>
		<path class="st0" d="M93.7,19.3c-2.2,0-3.7,1.5-3.7,3.7s1.6,3.6,3.6,3.6c1.9,0,3.6-1.2,3.6-3.7C97.2,20.8,95.8,19.3,93.7,19.3z
			 M93.7,25c-0.9,0-1.4-0.8-1.4-2c0-1.2,0.5-2,1.4-2c0.9,0,1.4,0.8,1.4,2C95.1,24.2,94.6,25,93.7,25z"/>
	</g>
	<path class="st0" d="M82.4,12V4h-1.2v4h0c-0.3-0.5-1-1-2-1c-1.6,0-3,1.3-3,3.5c0,2,1.2,3.4,2.8,3.4c1.1,0,1.9-0.6,2.3-1.3h0
		l0.1,1.2h1.1C82.4,13.3,82.4,12.6,82.4,12z M81.2,10.9c0,0.2,0,0.4-0.1,0.5c-0.2,0.9-1,1.5-1.8,1.5c-1.3,0-2-1.3-2-2.6
		c0-1.5,0.7-2.5,2-2.5c0.9,0,1.6,0.7,1.7,1.5c0,0.2,0.1,0.4,0.1,0.5V10.9z"/>
	<polygon class="st0" points="36.7,16.9 29.4,16.9 29.4,18.7 32,18.7 32,26.5 34.1,26.5 34.1,18.7 36.7,18.7 	"/>
	<path class="st0" d="M43.7,23c0,2.2,1.5,3.7,3.8,3.7c0.8,0,1.4-0.1,1.8-0.3v-1.7C49,24.9,48.5,25,47.9,25c-1.1,0-2-0.7-2-2
		c0-1.3,0.9-2,2-2c0.5,0,1.1,0.1,1.4,0.3v-1.7c-0.4-0.2-1-0.3-1.8-0.3C45.3,19.3,43.7,20.8,43.7,23z"/>
	<path class="st0" d="M61.5,10c0-1.2-0.6-3.1-2.7-3.1c-1.9,0-3.1,1.6-3.1,3.6c0,2,1.2,3.4,3.3,3.4c1.3,0,2.1-0.5,2.1-0.5v-1.1
		c0,0-0.8,0.7-2,0.7c-1.1,0-2.2-0.7-2.2-2.3h4.7C61.5,10.5,61.5,10.3,61.5,10z M60.4,9.7h-3.5c0.1-0.8,0.6-2,1.8-2
		C60.1,7.8,60.4,9,60.4,9.7z"/>
	<path class="st0" d="M42.7,22.8c0-1.7-0.9-3.5-3.2-3.5c-2.4,0-3.5,2-3.5,3.7c0,2.1,1.6,3.6,3.9,3.6c0.8,0,1.7-0.2,2.2-0.5v-1.6
		c-0.5,0.3-1.3,0.5-1.9,0.5c-1.1,0-2-0.4-2.1-1.3h4.4C42.7,23.5,42.7,23.2,42.7,22.8z M38.2,22.4c0.1-0.6,0.4-1.4,1.3-1.4
		c1,0,1.2,0.9,1.2,1.4H38.2z"/>
	<path class="st0" d="M77.2,22.8c0-1.7-0.9-3.5-3.2-3.5c-2.4,0-3.5,2-3.5,3.7c0,2.1,1.6,3.6,3.9,3.6c0.8,0,1.7-0.2,2.2-0.5v-1.6
		c-0.5,0.3-1.3,0.5-1.9,0.5c-1.1,0-2-0.4-2.1-1.3h4.4C77.1,23.5,77.2,23.2,77.2,22.8z M72.7,22.4c0.1-0.6,0.4-1.4,1.3-1.4
		c1,0,1.2,0.9,1.2,1.4H72.7z"/>
	<path class="st0" d="M25.7,1.9V0h-0.6C20.3,0,16,1.9,12.8,4.9C9.7,1.9,5.3,0,0.6,0H0v1.9h0.6c4.3,0,8.1,1.7,11,4.5
		C11,7,10.5,7.7,10,8.5c-2.4-2.5-5.7-4-9.4-4H0v1.9c0,0,0,0,0.6,0c3.2,0,6.3,1.4,8.5,3.9c-0.4,0.9-0.8,1.9-1.1,2.9
		c-1.5-2.5-4.3-4.2-7.4-4.2H0v1.9h0.6c3.8,0,6.8,3.1,6.8,6.8v8.8h1.9v-8.8c0-2,0.4-3.9,1.1-5.7c1,1.7,1.5,3.6,1.5,5.7v8.8h1.9v-8.8
		c0-2.1,0.6-4,1.5-5.7c0.7,1.8,1.1,3.7,1.1,5.7v8.8h1.9v-8.8c0-3.8,3.1-6.8,6.8-6.8h0.6V8.9h-0.6c-3.1,0-5.9,1.7-7.4,4.2
		c-0.3-1-0.6-2-1.1-2.9c2.2-2.5,5.2-3.9,8.5-3.9c0.6,0,0.6,0,0.6,0V4.5h-0.6c-3.7,0-7,1.5-9.4,4c-0.5-0.7-1-1.5-1.5-2.1
		c2.8-2.8,6.7-4.5,11-4.5H25.7z M14.4,10c-0.6,0.9-1.1,1.8-1.5,2.8c-0.4-1-0.9-1.9-1.5-2.8c0.4-0.8,1-1.5,1.5-2.2
		C13.4,8.4,13.9,9.2,14.4,10z"/>
</g>
</svg>
