<?xml version="1.0" encoding="utf-8"?>
<!-- Generator: Adobe Illustrator 19.0.0, SVG Export Plug-In . SVG Version: 6.00 Build 0)  -->
<svg version="1.1" id="Layer_1" xmlns="http://www.w3.org/2000/svg" xmlns:xlink="http://www.w3.org/1999/xlink" x="0px" y="0px"
	 viewBox="0 0 250 100" style="enable-background:new 0 0 250 100;" xml:space="preserve">
<style type="text/css">
	.st0{fill:#434343;}
	.st1{fill:#781F41;}
	.st2{fill:#9D9D9D;}
</style>
<path class="st0" d="M2.3,37.6h16.4v4.6H7.4v6.2h9.2V53H7.4v9.5H2.3V37.6z"/>
<path class="st0" d="M20.9,37.6H26v24.9h-5.1V37.6z"/>
<path class="st0" d="M43.8,62.4l-5.3-8.3l-5.3,8.3h-5.8l8.3-12.7l-7.8-12.2h5.8l4.8,7.8l4.8-7.8H49l-7.7,12.2l8.2,12.7H43.8z"/>
<path class="st0" d="M52.4,54.8c1.6,2.2,3.4,3.6,6.1,3.6c2.2,0,3.5-1.1,3.5-2.8c0-1.5-0.8-2-3.2-3.1l-2.7-1.2c-3.8-1.7-6-3.8-6-7.2
	c0-4.3,3.5-7.1,8.3-7.1c3.8,0,6.7,1.8,8.2,4.7l-3.5,2.7c-1.3-1.9-2.9-2.9-4.8-2.9c-1.8,0-3.1,0.9-3.1,2.4c0,1.3,0.8,1.9,2.9,2.9
	l2.8,1.2c4.2,1.8,6.1,3.9,6.1,7.3c0,4.6-3.7,7.5-8.7,7.5c-4.2,0-7.7-2.1-9.6-5.5L52.4,54.8z"/>
<path class="st0" d="M70.3,37.6h16.7v4.6H75.4v5.1H84v4.3h-8.6v6.3h12.1v4.6H70.3V37.6z"/>
<path class="st0" d="M90.6,37.6h5.1v20.3h10.9v4.6h-16V37.6z"/>
<path class="st0" d="M108.3,37.6h5.1v20.3h10.9v4.6h-16V37.6z"/>
<path class="st0" d="M157,37.6v25.3h-1.7l-14.4-15.4v14.9h-5.1V37.1h1.7l14.4,15.3V37.6H157z"/>
<path class="st1" d="M173.1,37.1c7.2-0.2,13.4,5.8,13.3,12.9c0.1,7.1-6.1,13-13.3,12.9c-7.2,0.2-13.3-5.8-13.2-12.9
	C159.8,42.9,165.9,36.9,173.1,37.1z M173.2,41.8c-4.6,0-8,3.4-8,8.2c0,4.8,3.4,8.2,8,8.2c4.6,0,8-3.4,8-8.2
	C181.1,45.3,177.7,41.8,173.2,41.8z"/>
<path class="st0" d="M204.6,62.4l-6.4-8.8h-3.7v8.8h-5.1V37.6h9.4c5.2,0,9,3.2,9,8c0,3.2-1.7,5.7-4.4,7.1l7.1,9.8H204.6z
	 M194.4,49.2h4.3c2.4,0,3.8-1.4,3.8-3.6c0-2.1-1.5-3.5-3.8-3.5h-4.3V49.2z"/>
<path class="st0" d="M216.9,42.2h-8v-4.6h21v4.6h-8v20.3h-5.1V42.2z"/>
<path class="st0" d="M231.5,37.6h16.7v4.6h-11.7v5.1h8.6v4.3h-8.6v6.3h12.1v4.6h-17.2V37.6z"/>
<g id="XMLID_20_">
	<path id="XMLID_25_" class="st2" d="M115.8,49.6h2.5c2.2,0,4,1.4,4,3.6c0,2.1-1.7,3.7-4,3.6h-2.5V49.6z M118.3,55.1
		c1.2,0,2-0.7,2-1.9c0-1.2-0.8-1.9-2-1.9h-0.6v3.8H118.3z"/>
	<path id="XMLID_23_" class="st2" d="M123.2,49.6h5v1.7h-3.1v1h2.2v1.6h-2.2v1.3h3.3v1.7h-5.2V49.6z"/>
	<path id="XMLID_21_" class="st2" d="M129.5,49.6h1.9v5.6h3v1.7h-4.9V49.6z"/>
</g>
</svg>
