<?xml version="1.0" encoding="utf-8"?>
<!-- Generator: Adobe Illustrator 19.0.0, SVG Export Plug-In . SVG Version: 6.00 Build 0)  -->
<svg version="1.1" id="Layer_1" xmlns="http://www.w3.org/2000/svg" xmlns:xlink="http://www.w3.org/1999/xlink" x="0px" y="0px"
	 viewBox="0 0 200 23" style="enable-background:new 0 0 200 23;" xml:space="preserve">
<style type="text/css">
	.st0{fill:#434343;}
	.st1{fill:#781F41;}
	.st2{fill:#9D9D9D;}
</style>
<g>
	<path class="st0" d="M2.4,1.7h12.9v3.6H6.5v4.9h7.3v3.6H6.5v7.5h-4V1.7z"/>
	<path class="st0" d="M17,1.7h4v19.7h-4V1.7z"/>
	<path class="st0" d="M35,21.4l-4.2-6.5l-4.2,6.5h-4.6l6.5-10l-6.1-9.7h4.6l3.8,6.2l3.8-6.2h4.6l-6,9.7l6.5,10H35z"/>
	<path class="st0" d="M41.7,15.3c1.3,1.8,2.7,2.9,4.8,2.9c1.8,0,2.8-0.8,2.8-2.2c0-1.2-0.6-1.6-2.5-2.4l-2.1-1c-3-1.3-4.8-3-4.8-5.7
		c0-3.4,2.8-5.6,6.5-5.6c3,0,5.3,1.5,6.5,3.7l-2.7,2.1c-1-1.5-2.3-2.3-3.8-2.3c-1.4,0-2.4,0.7-2.4,1.9c0,1,0.6,1.5,2.3,2.3l2.2,1
		c3.3,1.5,4.9,3.1,4.9,5.7c0,3.6-2.9,5.9-6.9,5.9c-3.3,0-6.1-1.7-7.6-4.3L41.7,15.3z"/>
	<path class="st0" d="M55.7,1.7H69v3.6h-9.2v4h6.8v3.4h-6.8v5h9.6v3.6H55.7V1.7z"/>
	<path class="st0" d="M71.7,1.7h4v16h8.6v3.6H71.7V1.7z"/>
	<path class="st0" d="M85.6,1.7h4v16h8.6v3.6H85.6V1.7z"/>
	<path class="st0" d="M124,1.7v20h-1.3L111.3,9.6v11.8h-4v-20h1.3L120,13.4V1.7H124z"/>
	<path class="st1" d="M136.6,1.3c5.7-0.1,10.6,4.6,10.5,10.2c0.1,5.6-4.8,10.3-10.5,10.2c-5.7,0.1-10.5-4.6-10.4-10.2
		C126.1,5.9,131,1.2,136.6,1.3z M136.7,5.1c-3.6,0-6.3,2.7-6.3,6.5c0,3.8,2.7,6.5,6.3,6.5c3.6,0,6.3-2.7,6.3-6.5
		C143,7.8,140.3,5.1,136.7,5.1z"/>
	<path class="st0" d="M161.4,21.4l-5.1-6.9h-2.9v6.9h-4V1.7h7.4c4.1,0,7.1,2.6,7.1,6.3c0,2.5-1.3,4.5-3.5,5.6l5.6,7.7H161.4z
		 M153.4,10.9h3.4c1.9,0,3-1.1,3-2.8c0-1.7-1.2-2.8-3-2.8h-3.4V10.9z"/>
	<path class="st0" d="M171,5.3h-6.3V1.7h16.6v3.6H175v16h-4V5.3z"/>
	<path class="st0" d="M182.4,1.7h13.2v3.6h-9.2v4h6.8v3.4h-6.8v5h9.6v3.6h-13.6V1.7z"/>
</g>
<g>
	<path class="st2" d="M91.7,11.2h2c1.8,0,3.2,1.1,3.1,2.8c0,1.7-1.4,2.9-3.1,2.9h-2V11.2z M93.7,15.6c0.9,0,1.6-0.6,1.6-1.5
		c0-1-0.7-1.5-1.6-1.5h-0.5v3H93.7z"/>
	<path class="st2" d="M97.6,11.2h4v1.3H99v0.8h1.8v1.3H99v1h2.6v1.3h-4.1V11.2z"/>
	<path class="st2" d="M102.5,11.2h1.5v4.4h2.4v1.3h-3.9V11.2z"/>
</g>
</svg>
