<?xml version="1.0" encoding="utf-8"?>
<!-- Generator: Adobe Illustrator 24.1.2, SVG Export Plug-In . SVG Version: 6.00 Build 0)  -->
<svg version="1.1" id="Layer_1" xmlns="http://www.w3.org/2000/svg" xmlns:xlink="http://www.w3.org/1999/xlink" x="0px" y="0px"
	 viewBox="0 0 100 39.3" style="enable-background:new 0 0 100 39.3;" xml:space="preserve">
<style type="text/css">
	.st0{fill:#FFFFFF;}
</style>
<g>
	<path id="XMLID_293_" class="st0" d="M37.9,35.1c-1.9,0-3.4,0-5,0c-0.3,0-0.7-0.3-1-0.6c-4.7-5-9.4-10-14.1-15
		c-0.3-0.4-0.6-0.8-1-1.2c-0.1,0.1-0.2,0.1-0.3,0.2c0,2.6,0,5.1,0,7.8c-1.2,0-2.3,0-3.4,0c-0.2,0-0.5-0.4-0.5-0.6c0-2.3,0-4.6,0-6.9
		c0-0.7,0.4-0.7,0.9-0.7c3.9,0,7.7,0,11.6,0c0.6,0,1.3,0.1,1.6-0.7c0.3-0.8,0.4-1.7-0.2-2.4c-0.2-0.3-0.8-0.4-1.2-0.4
		c-4.5,0-9.1,0-13.6,0c-0.3,0-0.7,0-1.2,0c0.5-1.5,1.3-2.7,2.3-3.7c0.2-0.2,0.6-0.2,0.9-0.2c3.9,0,7.8,0,11.7,0
		c3.6,0,5.9,2.9,5.4,6.7c-0.4,2.7-2.1,4.7-4.7,4.7c-0.1,0-0.2,0.1-0.5,0.2C29.7,26.6,33.7,30.7,37.9,35.1z"/>
	<path id="XMLID_292_" class="st0" d="M8.1,34.9C6.7,34,6.7,34,7.5,32.8c0.1-0.2,0.2-0.3,0.3-0.5c0.7-1,0.6-1.5-0.4-2.1
		c-0.2-0.1-0.5-0.1-0.7,0.1c-0.7,0.4-1.4,0.8-2.1,1.3c-1.1-1.1-1.1-1.1-0.1-2.1c0.2-0.2,0.3-0.3,0.5-0.4c0.8-0.8,0.8-1.5,0-2.2
		c-0.2-0.1-0.5-0.1-0.6-0.1C3.8,26.9,3.4,27,3,27.2c-1.3,0.4-1.3,0.4-1.8-1c0.7-0.4,1.4-0.9,2.1-1.2c0.5-0.3,0.5-0.6,0.3-1.1
		c-0.2-0.4-0.1-1.2-0.9-1C2.1,22.9,1.6,22.9,1,23c-0.5,0.1-0.9,0.1-1-0.6c-0.1-0.6,0-1,0.7-1.1c0.1,0,0.1,0,0.2-0.1
		c1.8-0.6,1.8-0.6,2-2.5c1.5,0,3.1,0,4.6,0c0.2,0,0.4,0.5,0.4,0.8c0.7,5.5,4.6,9.9,9.9,11.1c2.7,0.6,5.4,0.4,7.9-0.6
		c0.5-0.2,0.8-0.2,1.2,0.2c0.5,0.6,1.1,1.3,1.7,1.8c1.3,1,1.7,2.5,2.1,4c0.2,0.7-0.4,0.8-0.7,1c-0.4,0.3-0.7,0.1-0.9-0.3
		c-0.2-0.4-0.5-0.7-0.7-1.1c-0.4-0.9-0.9-1-1.7-0.6c-0.5,0.2-0.7,0.4-0.6,1c0.1,0.5,0.1,0.9,0.2,1.4c0.1,0.6,0.1,1-0.7,1.2
		c-0.8,0.2-0.9-0.3-1-0.8c-0.1-0.3-0.2-0.6-0.3-0.9c-0.2-0.9-0.7-1.2-1.6-1c-0.5,0.1-0.7,0.3-0.7,0.8c0,0.4-0.1,0.7-0.1,1.1
		c-0.2,1.3-0.2,1.3-1.7,1.2c-0.1-0.7-0.2-1.4-0.2-2.1c0-1-0.7-0.8-1.3-1c-0.6-0.2-0.8,0.2-1,0.7c-0.1,0.3-0.2,0.6-0.3,0.9
		c-0.5,1.4-0.5,1.4-1.9,0.8c0.1-0.8,0.1-1.6,0.3-2.3c0.1-0.7-0.3-0.8-0.7-0.9c-0.5-0.2-0.9-0.6-1.3,0.2c-0.2,0.5-0.6,0.9-0.8,1.3
		c-0.3,0.5-0.6,0.7-1.2,0.4c-0.7-0.3-0.6-0.7-0.4-1.2c0.2-0.3,0.2-0.7,0.4-1c0.4-0.7,0.2-1.2-0.5-1.6c-0.6-0.4-0.9-0.4-1.4,0.2
		C9.1,33.9,8.6,34.4,8.1,34.9z"/>
	<path id="XMLID_291_" class="st0" d="M80,10.7c-0.6,1.2-1,2.3-1.7,3.4c-0.1,0.2-0.6,0.3-0.9,0.3c-3.3,0-6.6,0-9.9,0
		c-0.9,0-1.2,0.2-1.2,1.1c0,0.9,0.4,1.1,1.2,1.1c2.8,0,5.6,0,8.5,0c2.5,0,4,1.5,4.1,4.1c0,0.7,0,1.3,0,2c-0.1,2-1.7,3.5-3.7,3.5
		c-3.7,0-7.3,0-11,0c-0.3,0-0.8-0.3-1-0.6c-0.6-0.9-1.1-2-1.7-3.2c0.4,0,0.7-0.1,1-0.1c3.8,0,7.6,0,11.4,0c1,0,1.5-0.6,1-1.6
		c-0.1-0.2-0.6-0.4-0.9-0.4c-2.8,0-5.6,0-8.5,0c-2.8,0-4.3-1.5-4.3-4.3c0-0.6,0-1.3,0-1.9c0.1-2,1.7-3.6,3.6-3.6c4.5,0,9,0,13.5,0
		C79.8,10.6,79.8,10.6,80,10.7z"/>
	<path id="XMLID_281_" class="st0" d="M9.1,18.1c-2.1,0-4.2,0-6.3,0C2.3,11.5,7.5,1.7,18.6,0.3C29.4-0.9,37.1,7,38.3,14.6
		c-1-1.5-1.9-2.8-2.8-4.1C35.2,10,34.7,9.7,34,9.7c-0.7,0.1-1.5,0-2.5,0C32.3,9,32.9,8.5,33.5,8c0.6-0.5,0.2-0.9-0.1-1.3
		c-0.3-0.4-0.7-1-1.3-0.3c-0.8,0.8-1.7,1.5-2.4,2.3c-0.2,0.2-0.3,0.6-0.5,1.1c-0.2-0.1-0.6-0.1-0.9-0.3C24.5,6.5,20.3,5.8,16,7.7
		c-4.3,1.9-6.6,5.4-6.9,10.2C9.1,17.9,9.1,18,9.1,18.1z M4.6,13.9c-0.7,0-0.6,0.7-0.7,1.1c-0.1,0.5-0.1,0.9,0.5,1
		c0.9,0.2,1.7,0.3,2.5,0.5c1.9,0.4,1.4,0.4,1.8-1.3c0-0.2-0.2-0.6-0.4-0.7C7.1,14.4,5.9,14.2,4.6,13.9z M21.8,5.9c0-1.5,0-2.8,0-4.2
		c0-0.2-0.6-0.5-1-0.5c-0.4,0-1.1,0.3-1.1,0.5c-0.1,1.4-0.1,2.8-0.1,4.3C20.4,5.9,21.1,5.9,21.8,5.9z M18.4,6
		c-0.4-1.4-0.8-2.7-1.1-4c-0.2-0.6-0.6-0.5-0.9-0.4c-0.4,0.2-1.2,0.6-1.1,0.8c0.3,1.4,0.7,2.8,1.1,4.2C17.1,6.4,17.7,6.3,18.4,6z
		 M23.1,6c0.6,0.2,1.1,0.4,1.6,0.5c0.2,0,0.6-0.1,0.6-0.3c0.4-1.2,0.7-2.4,1-3.6c0.2-0.8-0.5-0.7-0.9-0.8C25,1.7,24.5,1.3,24.2,2
		C23.8,3.3,23.5,4.7,23.1,6z M6,9.5c-0.3,0.6-0.6,1-0.7,1.4c-0.1,0.2,0,0.6,0.2,0.6c1.2,0.7,2.5,1.3,3.8,1.9
		c0.3-0.7,0.6-1.3,0.9-1.9C8.8,10.9,7.5,10.3,6,9.5z M13.4,8.3c0.7-0.5,1.3-0.8,1.8-1.2c-0.9-1.3-1.6-2.6-2.5-4
		c-0.5,0.3-1,0.6-1.4,0.9c-0.1,0.1-0.2,0.4-0.1,0.6C11.8,5.8,12.6,7,13.4,8.3z M28.1,8.3c0.8-1.3,1.5-2.4,2.2-3.6
		c0.4-0.6-0.3-0.8-0.6-1c-0.3-0.2-0.8-0.7-1.2-0.2c-0.8,1.2-1.5,2.4-2.2,3.6C26.9,7.5,27.5,7.9,28.1,8.3z M12.4,9
		c-0.9-0.8-1.7-1.6-2.5-2.3c-1-0.9-1.2-0.9-2,0.2C7.7,7.1,7.6,7.3,7.5,7.5c1.1,1,2.2,2,3.4,3.1C11.4,10.1,11.8,9.6,12.4,9z"/>
	<path id="XMLID_280_" class="st0" d="M79.8,26.2c1.3-2.4,2.4-4.6,3.6-6.8c1.3-2.5,2.6-5,3.9-7.5c0.6-1.1,1.5-1.7,2.7-1.7
		c1.2,0,2.1,0.6,2.6,1.7c2.3,4.5,4.7,8.9,7,13.4c0.1,0.2,0.2,0.4,0.3,0.7c-4.7,0-9.2,0-13.9,0c0.6-1.2,1.1-2.4,1.7-3.5
		c0.1-0.2,0.5-0.2,0.7-0.2c1.5,0,3,0,4.5,0c0.3,0,0.6,0,1.1-0.1c-0.6-1-1.1-1.9-1.7-2.8c-0.6-1-1.2-2-1.8-3
		c-0.6-0.9-0.8-0.9-1.3,0.1c-1.6,2.9-3.2,5.8-4.8,8.8c-0.3,0.6-0.7,0.8-1.4,0.8C82.1,26.2,81,26.2,79.8,26.2z"/>
	<path id="XMLID_279_" class="st0" d="M62.9,26.2c-4.7,0-9.2,0-13.9,0c0.6-1.2,1-2.3,1.6-3.4c0.1-0.2,0.6-0.3,0.9-0.3
		c1.5,0,2.9,0,4.4,0c0.3,0,0.6,0,1,0c-0.2-0.3-0.2-0.6-0.3-0.8c-1-1.7-2-3.4-3-5c-0.5-0.9-0.8-0.9-1.3,0.1c-1.6,2.9-3.2,5.7-4.7,8.6
		c-0.4,0.7-0.8,1-1.7,0.9c-1,0-0.9,0-3.1,0c0.2-0.4,0.3-0.7,0.5-1c2.3-4.4,4.6-8.8,6.9-13.1c0.6-1.1,1.4-1.8,2.7-1.8
		c1.3,0,2.1,0.6,2.7,1.7c2.3,4.4,4.6,8.8,7,13.2C62.6,25.5,62.8,25.8,62.9,26.2z"/>
	<path id="XMLID_278_" class="st0" d="M29.7,10.6c1.6,0,3,0,4.4,0c0.3,0,0.6,0.3,0.8,0.6c1.2,1.7,2.4,3.4,3.5,5.1
		c0.5,0.8,0.7,0.8,1.3,0c1.1-1.7,2.2-3.4,3.3-5.1c0.3-0.5,0.7-0.7,1.3-0.7c1.3,0.1,2.6,0,4.1,0c-0.2,0.3-0.2,0.5-0.4,0.7
		c-2.2,3.4-4.5,6.9-6.7,10.3c-0.2,0.3-0.3,0.8-0.3,1.2c0,1.2,0,2.3,0,3.5c-1.3,0-2.4,0-3.8,0c0-1.2,0-2.3,0-3.4
		c0-0.5-0.2-0.9-0.4-1.3c-2.2-3.4-4.4-6.8-6.7-10.2C30,11.2,29.9,11,29.7,10.6z"/>
	<path id="XMLID_277_" class="st0" d="M30.7,26.3c1.8-2.2,2.7-4.7,3-7.5c0.1,0,0.2-0.1,0.2-0.1c0.5,0.8,1,1.6,1.6,2.4
		c0.6,0.8,0.9,1.6,0.8,2.6c-0.1,0.9,0,1.8,0,2.8c0,0.2,0.1,0.4,0,0.6c-0.9,1.4,0.2,2,1,2.7c0.6,0.5,0.7,0.9,0.1,1.4
		c-0.2,0.2-0.6,0.3-0.8,0.2C34.1,30.3,32.5,28.2,30.7,26.3z"/>
	<path id="XMLID_276_" class="st0" d="M25.7,29.3c-3.7,2.1-10.2,1.1-12.9-2.1c0.4,0.1,0.9,0.1,1.3,0.4c3.4,2.2,6.9,2.7,10.7,1.4
		c0.3-0.1,0.6,0.1,0.9,0.1C25.7,29.1,25.7,29.2,25.7,29.3z"/>
	<path id="XMLID_275_" class="st0" d="M11.9,26.4c-1.7-1.4-2.6-3.2-3.1-5.2c-0.2-0.6-0.2-1.3-0.3-2c0-0.2,0.2-0.3,0.3-0.5
		c0.1,0.1,0.3,0.2,0.4,0.4c0.3,2.3,1.1,4.3,2.5,6.2C11.9,25.6,11.8,26.1,11.9,26.4z"/>
	<path id="XMLID_274_" class="st0" d="M30,25.7c0-0.3-0.1-0.6,0.1-0.8c1.2-1.7,1.9-3.5,2.1-5.6c0-0.2,0.3-0.4,0.5-0.6
		c0.1,0.2,0.3,0.4,0.3,0.6c-0.2,2.4-1.1,4.5-2.6,6.4C30.3,25.8,30.1,25.7,30,25.7z"/>
	<path id="XMLID_241_" class="st0" d="M33.5,18.1c-0.5,0-0.8,0-1.1,0c-0.1-0.6-0.1-1.1-0.2-1.6c0.1,0,0.1-0.1,0.2-0.1
		c0.2,0.2,0.4,0.5,0.6,0.8C33,17.4,33.2,17.7,33.5,18.1z"/>
</g>
</svg>
