<?xml version="1.0" encoding="utf-8"?>
<!-- Generator: Adobe Illustrator 24.1.2, SVG Export Plug-In . SVG Version: 6.00 Build 0)  -->
<svg version="1.1" id="Layer_1" xmlns="http://www.w3.org/2000/svg" xmlns:xlink="http://www.w3.org/1999/xlink" x="0px" y="0px"
	 viewBox="0 0 100 129.4" style="enable-background:new 0 0 100 129.4;" xml:space="preserve">
<style type="text/css">
	.st0{fill-rule:evenodd;clip-rule:evenodd;fill:#FFFFFF;}
</style>
<g>
	<path class="st0" d="M51,55.5c0.6-3.1-1.9-11.9,5-11.1c2.5,0.2,3.9,1.6,5.4,2.6l14.3,10c1.7,1.1,3.1,2.2,4.7,3.5
		c4.7,3.3,5,6.1,0.3,9.5L61.6,83.4c-1.6,1.1-3,2.5-5.3,2.9c-7,1.4-4.8-7-5.3-10.9c-13.3,0-26.5,0.2-39.6,0c-4.4,0-4.2,3.6-4.2,6.9
		c0,2.5,0,4.5,1.6,5.8c1.9,1.6,3.1,1.3,5.9,1.3H80c2,0,5.1,0.3,6.7-0.5c1.6-0.9,2.7-2.4,2.7-4.7c0.2-12,0-24.2,0-36.2
		c0-2.7,0.2-4.2-1.4-5.9c-1.6-1.6-3.3-1.3-5.9-1.3H45.5c0,4.4,0.9,12.7-4.7,11.7c-2.5-0.5-8-4.7-10.2-6.2L16.2,36.1
		c-1.4-0.9-3.6-2.4-3.8-4.5c-0.3-2.7,1.6-3.9,3-5l19.3-13.6c1.6-1.1,3.1-2.5,5.3-3c6.7-1.4,5.3,5.8,5.4,10.8c1.3,0.2,32.8,0,36.3,0
		c2.7,0,4.2,0.2,5.9-1.3c1.7-1.4,1.6-3.4,1.6-5.9c0-2.8,0.3-4.4-1.4-5.9c-1.7-1.7-3.1-1.4-5.9-1.4H16.4c-3.8,0-9.4-0.9-9.2,5.4
		c0,9.7-0.3,19.6,0,29.2c0,2.5,0,5,0,7.3c0,2.5-0.2,4.7,1.4,5.9c2,1.7,2.7,1.4,5.9,1.4C26.5,55.7,38.9,55.7,51,55.5L51,55.5z"/>
	<path class="st0" d="M51,55.5c-12.2,0.2-24.5,0.2-36.5,0.2c-3.3,0-3.9,0.3-5.9-1.4C7,53,7.2,50.8,7.2,48.3c0-2.4,0-4.8,0-7.3
		c-0.3-9.5,0-19.5,0-29.2C7,5.4,12.6,6.4,16.4,6.4h65.7c2.8,0,4.2-0.3,5.9,1.4c1.7,1.6,1.4,3.1,1.4,5.9c0,2.5,0.2,4.5-1.6,5.9
		c-1.7,1.4-3.3,1.3-5.9,1.3c-3.6,0-35.1,0.2-36.3,0c-0.2-5,1.3-12.2-5.4-10.8c-2.2,0.5-3.7,1.9-5.3,3L15.5,26.6
		c-1.4,1.1-3.3,2.4-3,5c0.2,2.2,2.4,3.6,3.8,4.5l14.5,10.2c2.2,1.6,7.6,5.8,10.2,6.2c5.6,0.9,4.7-7.3,4.7-11.7h36.5
		c2.7,0,4.4-0.3,5.9,1.3c1.6,1.7,1.4,3.3,1.4,5.9c0,12,0.2,24.2,0,36.2c0,2.4-1.1,3.8-2.7,4.7c-1.6,0.8-4.7,0.5-6.7,0.5H14.7
		c-2.8,0-4,0.3-5.9-1.3c-1.6-1.3-1.6-3.3-1.6-5.8c0-3.3-0.2-6.9,4.2-6.9c13.1,0.2,26.3,0,39.6,0c0.5,3.9-1.7,12.4,5.3,10.9
		c2.4-0.5,3.8-1.9,5.3-2.9L80.8,70c4.7-3.5,4.4-6.2-0.3-9.5c-1.6-1.3-3-2.4-4.7-3.5L61.5,47c-1.6-1.1-3-2.5-5.4-2.6
		C49.2,43.7,51.7,52.4,51,55.5L51,55.5z M10.5,4.3c-3,0.6-5.3,3-5.6,6.1c-0.3,3.3,0,8.1,0,11.6c0.2,7.8,0,15.6,0,23.4
		c0,3.8-0.5,7.3,1.6,9.8c2.4,3,4.5,2.7,9.1,2.7h34.9c4.7,0,2.2-0.8,3-8.6c0.5-5,4.8-1.7,6.7-0.5c2.4,1.7,4.5,3.3,6.9,4.8
		c0.9,0.6,13.1,9.2,13.7,9.7c3.1,2.7-1.3,4.8-3.1,6.2c-5.1,3.6-11.7,8.3-17,12c-0.9,0.5-2.7,2-3.6,2.4c-4.7,1.7-3.6-2.7-3.6-7.3
		c0-3.9,1.1-3.3-8.4-3.3c-7.6,0-15.4,0-23.1,0c-3.9,0-7.8,0-11.7,0c-3,0-5.1,3.1-5.3,6.5c0,3.9-0.5,7.2,2,9.7c2.6,2.7,5.1,2,9.5,2
		h58.3c2.5,0,9.5,0.3,11.5-0.2c2.8-0.6,5.1-3.1,5.4-6.2c0.2-3.5,0-8,0-11.6c0-7.8,0-15.6,0-23.4c0-4.2,0.5-6.9-2-9.5
		c-2.4-2.7-5.3-2.2-9.5-2.2H45.2c-3.6,0-1.3,3.3-2,9.5c-0.6,4.4-3.7,1.7-6.7-0.5c-2.2-1.6-4.5-3.1-6.9-4.8
		c-1.1-0.8-13.1-8.9-13.7-9.5c-1.3-1.1-1.6-2.5-0.3-3.9c0.6-0.5,15.4-10.9,17.2-12c1.1-0.8,6.2-4.5,6.9-4.8c4.5-1.7,3.6,3.1,3.6,7.6
		c0,3-0.2,3.1,2.8,3.1h29.2c2.5,0,9.4,0.2,11.4-0.3c2.8-0.8,5-3.3,5-6.7c0.2-4.2,0.5-7.3-1.9-9.8c-2.7-2.8-5-2.2-9.5-2.2H22
		C19,4.2,12.8,3.9,10.5,4.3L10.5,4.3z"/>
	<path class="st0" d="M57.9,62.4h-51l-0.2,6.2h51.2v8.9c0.6,0,15.8-10.9,17.6-12.2c-0.6-0.5-3.6-2.5-4.4-3.1
		c-1.7-1.1-12.5-8.9-13.3-9.1V62.4z"/>
	<path class="st0" d="M21.1,31c0.3,0.5,0.2,0.2,0.5,0.5c0.8,0.6,11.1,7.6,12.6,8.7c0.8,0.6,3.7,2.8,4.5,3.1V34L90,33.7
		c0.2-1.1,0.2-4.8,0.2-6.1l-51.5,0.2V19c-0.8,0.2-3.6,2.4-4.4,3l-8.7,6.1c-0.8,0.5-1.4,0.9-2.2,1.4C22.6,30.1,21.9,30.5,21.1,31
		L21.1,31z"/>
	<path class="st0" d="M43.7,101.9c-3.1,0.3-4.8,2.4-4.8,5.6c0,4.8-0.2,11.1,0,15.8c0,2.6,2.5,1.7,2.8,1.4c0.6-0.8,0.3-12.9,0.3-15.6
		c0-1.9-0.3-3.6,1.9-3.3c1.7,0.2,1.3,2.2,1.3,3.9v10.5c0,1.9-0.3,3.6,0.9,4.4c1.1,0.6,3.1,0.8,4.2,0.2c1.4-0.8,1.3-2.4,1.3-4.2
		c0-3.5,0-7,0-10.5c0-1.6-0.5-4,0.9-4.4c2.4-0.5,2,1.7,2,3.5c-0.2,3.4,0,7,0,10.5c0,1.6-0.3,3.6,0.5,4.7c0.8,0.9,2.8,1.3,4.4,0.6
		c1.4-0.5,1.6-1.7,1.6-3.6c0-2.2,0.2-14.7,0-15.6c-0.5-3-3.4-3.9-6.7-3.9C51.2,101.7,46.5,101.4,43.7,101.9L43.7,101.9z"/>
	<path class="st0" d="M23.1,111.9c-0.2-1.3,0-3.6,0-4.8c0-1.9,1.1-2,2.8-2c2.7,0,5.1-0.5,5.1,2.4c0,2.4,0.5,4.5-2.8,4.5L23.1,111.9
		L23.1,111.9z M23.3,115.3c2.4-0.2,4.8-0.2,7.3-0.2c6.9,0.2,6.4-3,6.4-8c0-6.4-5-5.3-9.4-5.4c-5.3,0-7.8,0.9-7.6,7
		c0,2.7-0.5,12.5,0.5,14.3c0.9,2.2,2.8,1.9,5.3,1.9c4.5,0,10.9,1.1,11.1-3.8c0.2-2.8,0-4-3.1-4c-4,0.2-1.9,3.3-3,4.4
		c-0.9,0.9-6.5,0.5-6.7,0.5c-0.9-0.5-0.9-1.9-0.9-3C23.3,117.8,23.1,116.4,23.3,115.3L23.3,115.3z"/>
	<path class="st0" d="M66,112c0-1.1,0-2.4,0-3.6c0-1.3-0.2-2.4,0.9-3c0.8-0.5,2.2-0.3,3.3-0.3c3.6,0,3.8,0.5,3.8,3.8
		c0,1.4,0,2.2-0.9,2.8C71.8,112.3,67.7,112.2,66,112L66,112z M66.2,115.5c5.1-0.3,10.6,1.1,12.8-1.7c1.4-1.7,1.1-4.1,1.1-6.4
		c0-6.4-5.4-5.3-9.5-5.3c-5.1,0-7.6,0.8-7.6,6.9c0,2.7-0.3,12.3,0.5,14.2c0.8,2.4,2.7,2,5.3,2c2.4,0,5,0.2,7.3,0
		c2,0,3.7-1.6,3.7-3.6c0.3-2.8,0-4.2-3.1-4c-3.9,0.2-1.9,3.3-3,4.4c-0.6,0.6-5.9,0.6-6.7,0.3c-0.9-0.5-0.8-1.9-0.8-3
		C66.2,118.1,66.2,116.5,66.2,115.5L66.2,115.5z"/>
	<path class="st0" d="M3,118.1c-0.8-0.5-1.9-0.6-2.8-0.2c-0.2,0.8-0.3,3.3,0,4.2c0.2,1.1,1.1,1.9,2,2.4c1.4,0.6,6.9,0.3,8.9,0.3
		c2.8,0,5.8,0.5,6.5-2.4c0.3-1.3,0.3-7.5-0.2-8.4c-1.1-2.4-4-2-7-2c-4.7,0-4.4,0.2-4.4-4.7c0.2-2.9,2-2.4,6.7-2.4s0.2,5.1,4.2,4.7
		c1.9-0.3,1.3-5.3-0.3-6.7c-1.7-1.6-5-1.3-7.8-1.3c-3,0-5.8-0.5-7.5,1.4c-1.7,1.9-1.1,4.8-1.3,7.8c0,4,2.2,4,5,4
		c2.5,0,6.5-0.8,6.9,2c0.2,0.8,0.2,3.6-0.2,4.2c-0.6,1.1-2.2,0.8-3.7,0.8c-0.8,0-3.7,0-4.4-0.2C2.7,121.5,3.3,119.3,3,118.1L3,118.1
		z"/>
	<path class="st0" d="M87.1,113.9c-0.8,1.3-5.3,7.6-5.4,8c-0.5,1.4,0.8,2.4,1.6,3c2.2,1.7,4.5-1.4,5.4-2.5c0.6-0.8,3.5-4.7,4.1-5
		l4.7,8c2.8,0.3,2.2-1.4,1.4-3c-0.5-0.8-0.8-1.4-1.3-2.2c-0.8-1.4-1.6-2.8-2.4-4.2c-1.3-1.9-1.1-1.3,0.8-4c0.8-1.4,1.7-2.7,2.7-4.1
		s2.2-2.7,0.6-4.5c-3.1-3.6-5.1,0.6-7.3,3.3c-0.5,0.8-2.2,3.4-3,3.9c-0.3-0.8-1.1-2-1.6-2.7l-3.1-5.1c-0.3-0.5-0.5-0.8-1.3-0.8
		c-0.6,0-1.3,0.6-1.4,0.9c-0.6,0.9,1.6,4.1,2.4,5.4C84.6,109.4,86.7,112.8,87.1,113.9L87.1,113.9z"/>
</g>
</svg>
