<?xml version="1.0" encoding="utf-8"?>
<!-- Generator: Adobe Illustrator 24.1.2, SVG Export Plug-In . SVG Version: 6.00 Build 0)  -->
<svg version="1.1" id="Layer_1" xmlns="http://www.w3.org/2000/svg" xmlns:xlink="http://www.w3.org/1999/xlink" x="0px" y="0px"
	 viewBox="0 0 100 12.2" style="enable-background:new 0 0 100 12.2;" xml:space="preserve">
<style type="text/css">
	.st0{fill-rule:evenodd;clip-rule:evenodd;fill:#FFFFFF;}
</style>
<path class="st0" d="M25,3.9c1.1,1,0.3,2.5,0,3.6c-0.7,1.8-1.2,4.4-3.6,4.5c-1.5,0.2-3.3,0.3-4.5-0.5c-1.1-1-0.3-2.6,0-3.7
	c0.6-1.7,1.4-4.5,3.8-4.5C22.2,3.3,23.8,3.2,25,3.9z M57.8,6.5c0.6,1,1.2,1.9,1.9,2.8c-0.8,0.8-1.9,1.2-3.1,0.9
	c-0.4-0.1-0.8-0.4-1-0.7c-0.3-0.5-0.2-1.2,0.2-1.7c0.5-0.6,1.2-1,1.9-1.3H57.8z M45.9,4.5c0.1,0.6,0,1.1-0.2,1.6l-2,5.6l-0.1,0.1
	c-0.8,0-1.7,0-2.5,0c-0.1-0.1,0.1-0.3,0-0.4c-0.8,0.6-2.2,0.7-3,0.2c-0.4-0.3-0.6-0.6-0.6-1.1c0-1.1,0.4-2.1,1-2.9
	c1.1-1.2,2.8-1,4.4-1.1c0.2-0.4,0.5-0.9,0.3-1.4c-0.2-0.2-0.5-0.2-0.8-0.1c-0.5,0.1-0.5,0.7-0.8,0.9l-2.5,0c-0.1-0.4,0.2-0.7,0.4-1
	c0.7-1.3,2.1-1.4,3.5-1.5C43.9,3.4,45.4,3.3,45.9,4.5L45.9,4.5z M60.1,2.3c0.2,0.2,0.3,0.4,0.4,0.7c-0.1,1.2-1.4,1.7-2.2,2.1
	c-0.2,0-0.2-0.3-0.3-0.5c-0.3-0.6-0.2-1.6,0.3-2.1C58.7,1.9,59.6,1.8,60.1,2.3L60.1,2.3z M13.8,0.9c-0.3,0.9-0.7,1.9-0.9,2.8l0.1,0
	c1.1-0.5,2.6-0.6,3.7,0c0.3,0.3,0.5,0.6,0.5,1l-0.2,1l-2.3,6l-0.1,0.1c-0.9,0-1.9,0-2.8,0v-0.3l2.2-5.6c0.1-0.3,0-0.6-0.3-0.7
	c-0.3-0.1-0.7-0.1-1,0.1C12.1,5.5,12,6,11.9,6.4l-2.1,5.4l-0.1,0.1H6.9l0-0.1l0.8-1.9l3.2-8.9L11,0.8C11.9,0.8,12.9,0.8,13.8,0.9
	L13.8,0.9z M53.2,3.8c0.4,0.3,0.6,0.7,0.6,1.2c0,0.4,0,0.8-0.2,1.1l-0.2,0.1l-2.3,0l-0.1-0.1c0-0.3,0.2-0.7,0-1
	c-0.2-0.2-0.6-0.2-0.9-0.1c-0.4,0.2-0.6,0.6-0.6,1c0.1,0.3,0.4,0.5,0.7,0.6c1,0.4,2.5,0.8,2.6,2.2c0,1.1-0.5,2-1.5,2.6
	c-1.1,0.6-2.4,0.6-3.7,0.5c-0.8-0.1-1.7-0.3-2.2-1.1c-0.3-0.5-0.2-1.2,0-1.8L45.4,9l2.7,0c0,0.3-0.2,0.6,0,1
	c0.2,0.2,0.5,0.3,0.8,0.3c0.3,0,0.6-0.3,0.7-0.6c0.1-0.3,0.1-0.6-0.1-0.8c-1.1-0.8-3.1-0.8-3.1-2.6c0.1-1.1,0.6-2.2,1.6-2.6
	c1.4-0.6,3.2-0.5,4.6-0.1L53.2,3.8L53.2,3.8z M57.4,7.9c-0.3,0.1-0.6,0.3-0.8,0.6c-0.1,0.3,0,0.6,0.2,0.8c0.3,0.1,0.5,0,0.8-0.1
	c0.2-0.1,0.6,0,0.5-0.3L57.4,7.9z M41,8.1c-0.6,0.3-0.8,1-0.8,1.6c0,0.2,0.2,0.4,0.4,0.4c0.3,0,0.6-0.1,0.8-0.4
	c0.2-0.6,0.5-1.1,0.6-1.7C41.8,8,41.4,8,41,8.1z M80,4.3c0.5,1.3-0.2,2.6-0.6,3.8c-1.5,0.1-3.1,0.1-4.7,0.1
	c-0.3,0.3-0.3,0.8-0.5,1.3c0,0.3,0,0.6,0.3,0.7c0.3,0.1,0.7,0.1,1,0c0.4-0.3,0.6-0.7,0.8-1.2c0.9,0,1.9,0,2.8,0l0,0.1
	c-0.4,1.2-1.4,2.5-2.7,2.8c-1.4,0.2-3.2,0.4-4.3-0.5c-0.7-0.6-0.8-1.4-0.6-2.2c0.5-1.6,0.9-3.3,1.9-4.7c1.1-1.4,3.1-1.2,4.8-1.1
	C78.8,3.3,79.6,3.5,80,4.3L80,4.3z M76.2,4.9c-0.6,0.3-0.7,1-0.8,1.5c0.5,0,1.1,0,1.6,0C77.1,6,77.5,5.5,77.3,5
	C77,4.7,76.5,4.7,76.2,4.9L76.2,4.9z M62.1,1.4c0.5,0.9,0.5,2.2-0.1,3.1c-0.4,0.7-1.2,1.3-1.9,1.8l0,0.1c0.3,0.5,0.7,0.9,1,1.4
	c-0.2,0.3-0.4,0.5-0.6,0.7c-0.7-0.7-1.2-1.6-1.7-2.5l0-0.1c1.1-0.6,2.5-1.4,2.7-2.8c0.1-0.6-0.1-1.3-0.6-1.7
	c-0.6-0.5-1.5-0.6-2.3-0.4c-0.8,0.2-1.6,1-1.7,1.9c-0.2,0.9,0.1,1.8,0.4,2.6c-1.2,0.6-3,1.6-2.9,3.3c0,0.8,0.4,1.5,1.1,1.9
	c1.4,0.9,3.4,0.3,4.6-0.5c1.5-1,2.3-2.6,2.8-4.2l2-5.4l0.2,0l5.5,0c0.7,0,1.5,0.3,1.8,1.1c0.5,1.2,0,2.5-0.7,3.5
	c-0.4,0.5-1,0.8-1.6,1c0.6,0.5,1,1.2,0.9,2c-0.2,1.2-0.7,2.6-2,3.2c-0.7,0.3-1.4,0.4-2.3,0.4h-5.9l-0.1-0.1c0-0.3,0.3-0.6,0.3-1
	c-1.5,1.3-3.7,1.9-5.6,1.2c-1.1-0.3-2.1-1.4-2.2-2.6c-0.1-1.4,0.5-2.5,1.5-3.4c0.4-0.3,0.8-0.5,1.1-0.8c-0.4-1.1-0.3-2.6,0.3-3.6
	c0.9-1.2,2.3-1.6,3.8-1.3C60.9,0.2,61.6,0.7,62.1,1.4L62.1,1.4z M68.8,3c-0.4-0.3-1.1-0.2-1.6-0.1c-0.2,0.7-0.6,1.3-0.6,2
	c0.6,0,1.2,0.1,1.7-0.1c0.6-0.3,0.7-0.9,0.7-1.5L68.8,3L68.8,3z M67.1,6.9c-0.4,0-1-0.1-1.4,0c-0.3,0.7-0.6,1.5-0.8,2.2
	c0.6,0,1.4,0.1,2-0.1c0.6-0.3,0.9-1,0.7-1.6C67.6,7.2,67.4,7,67.1,6.9L67.1,6.9z M59.3,2.8c-0.2,0-0.4,0.2-0.5,0.4
	c-0.1,0.2-0.1,0.6,0,0.7c0.3-0.2,0.8-0.5,0.8-0.9C59.6,2.9,59.4,2.8,59.3,2.8L59.3,2.8z M21.6,5.1c-0.3,0-0.5,0.2-0.7,0.4
	c-0.7,1.2-1,2.5-1.4,3.8l0,0.5c0,0.2,0.2,0.3,0.4,0.3c0.4,0.1,0.9,0,1.1-0.3c0.6-1.2,1-2.5,1.5-3.8c0-0.3,0.2-0.6-0.1-0.8
	C22.2,5.1,21.9,5.1,21.6,5.1L21.6,5.1z M33.7,4.1c0.3,0,0.4-0.3,0.6-0.4c1-0.5,2.4-0.5,3.3,0.1c0.4,0.3,0.5,0.6,0.5,1l-0.1,0.7
	c-0.7,2.1-1.6,4.1-2.3,6.1l-0.1,0.1l-2.8,0l0-0.3l2.2-5.7c0-0.2-0.1-0.4-0.3-0.5c-0.3-0.1-0.7,0-0.9,0.2l-0.3,0.4l-2.3,6l-0.2,0.1
	l-2.6,0l0-0.1l2.2-5.9c0.1-0.2,0-0.4-0.2-0.5c-0.3-0.1-0.7-0.1-1,0.2l-0.3,0.5L27,11.7l-0.1,0.1h-2.7l0-0.2l3-8.1l0.1-0.1h2.5
	c0.1,0.1,0,0.3,0,0.4c0.3-0.1,0.5-0.3,0.8-0.4C31.6,3.3,32.9,2.9,33.7,4.1L33.7,4.1z M99.2,3.7c0.4,0.3,0.6,0.7,0.6,1.2
	c0,0.4,0,0.8-0.2,1.1L99.4,6l-2.3,0L96.9,6c0-0.3,0.2-0.7,0-1c-0.2-0.2-0.6-0.2-0.9-0.1c-0.4,0.2-0.6,0.6-0.6,1
	c0.1,0.3,0.4,0.5,0.7,0.6c1,0.4,2.5,0.8,2.6,2.2c0,1.1-0.5,2-1.5,2.6c-1.1,0.6-2.4,0.6-3.7,0.5c-0.8-0.1-1.7-0.3-2.2-1.1
	c-0.3-0.5-0.2-1.2,0-1.8l0.1-0.1l2.7,0c0,0.3-0.2,0.6,0,1c0.2,0.2,0.5,0.3,0.8,0.3c0.3,0,0.6-0.3,0.7-0.6c0.1-0.3,0.1-0.6-0.1-0.8
	C94.5,8,92.5,8,92.5,6.2c0.1-1.1,0.6-2.2,1.6-2.6c1.4-0.6,3.2-0.5,4.6-0.1L99.2,3.7L99.2,3.7z M86.3,1.2l-0.7,2.1l0.1,0.1H88
	c0.4-0.5,0.3-1.4,1-1.5c0.9-0.2,1.9-0.6,2.8-0.8c-0.2,0.7-0.5,1.4-0.7,2.2l0.1,0.1l1.5,0l0,0.1l-0.5,1.4l-0.1,0.1l-1.6,0
	c-0.6,1.4-1.1,2.9-1.7,4.4c0,0.2,0.1,0.4,0.3,0.5c0.5,0.1,1,0,1.4,0c-0.1,0.6-0.5,1.1-0.7,1.7c-1.1,0.2-2.6,0.4-3.7-0.1
	c-0.4-0.3-0.6-0.7-0.6-1.2l0.2-1C86.4,8,87,6.5,87.5,5C86.6,4.9,85.8,5,85,5c-0.6,1.4-1.1,2.9-1.6,4.4c-0.1,0.2,0.1,0.4,0.2,0.5
	c0.5,0.1,0.9,0,1.4,0l0.1,0.1l-0.7,1.7c-1.3,0.1-2.7,0.4-3.9-0.2c-0.3-0.3-0.4-0.5-0.4-1l0.1-0.7l1.7-4.6l0-0.1
	c-0.4-0.1-0.9,0-1.2-0.1l0.5-1.4l0.2-0.1l1.2,0C82.7,3,82.8,2.5,83,2C84.1,1.7,85.2,1.4,86.3,1.2L86.3,1.2L86.3,1.2z M10.2,0.9
	c-0.2,0.8-0.5,1.7-0.9,2.5L9.3,3.4l-2.7,0L6.4,3.7l-3.1,8.1l-0.1,0.1l-3,0l0-0.1l3-8.1L3.1,3.5l-2.9,0c0.2-0.9,0.6-1.6,0.8-2.5
	l0.2-0.1l8.6,0L10.2,0.9z"/>
</svg>
