<?xml version="1.0" encoding="utf-8"?>
<!-- Generator: Adobe Illustrator 24.1.2, SVG Export Plug-In . SVG Version: 6.00 Build 0)  -->
<svg version="1.1" id="Layer_1" xmlns="http://www.w3.org/2000/svg" xmlns:xlink="http://www.w3.org/1999/xlink" x="0px" y="0px"
	 viewBox="0 0 100 58.7" style="enable-background:new 0 0 100 58.7;" xml:space="preserve">
<style type="text/css">
	.st0{fill-rule:evenodd;clip-rule:evenodd;fill:#FFFFFF;}
</style>
<g>
	<path class="st0" d="M49.4,38.9H32.9c-3.1-0.1-5.5-2.5-5.5-5.6V14.1h5c2,0,3.6,1.3,4.3,2.9l-0.3-0.4L49.4,38.9L49.4,38.9z
		 M55.2,38.8h13c3.1,0,5.6-2.5,5.6-5.6L74,18.9H69c-1.4,0-2.7,0.8-3.5,1.8L55.2,38.8L55.2,38.8z"/>
	<path class="st0" d="M73.8,3.9h-9.4c-1.7,0-3.2,1-4.1,2.4l-9.8,17.1c-0.1,0.6-0.7,1-1.3,1s-1.3-0.4-1.4-0.8l-5.6-9.9
		c-0.8-1.3-2.2-2.1-3.8-2.1H27.5v-6C27.5,2.4,30,0,33.1,0h40.8V3.9z M58.5,48.2l2.9,8.7l2.9-8.7H66l-3.8,10.2h-1.4L57,48.2
		L58.5,48.2L58.5,48.2z M67.6,48.2H69v10.2h-1.4L67.6,48.2L67.6,48.2z M78.9,48.2v1.1h-3.5v9.1H74v-9.1h-3.5v-1.1L78.9,48.2
		L78.9,48.2z M84.9,52.8c0.7,0,1.1-0.1,1.5-0.4c0.4-0.1,0.6-0.7,0.6-1.4c0-0.7-0.3-1.1-0.7-1.4c-0.4-0.1-0.7-0.3-1.3-0.3h-3.4v3.5
		H84.9L84.9,52.8z M80.3,48.2H85c0.8,0,1.4,0,2,0.3c1,0.4,1.4,1.3,1.4,2.4c0,0.7-0.1,1.1-0.3,1.5c-0.3,0.4-0.7,0.7-1.1,1
		c0.4,0.1,0.7,0.4,0.8,0.7c0.3,0.1,0.4,0.7,0.4,1.3v1.4c0,0.4,0.1,0.7,0.1,0.8c0.1,0.3,0.3,0.6,0.4,0.7v0.1h-1.7
		c0,0-0.1-0.1-0.1-0.3v-0.8l-0.1-1.7c0-0.7-0.3-1.1-0.7-1.4c-0.3-0.1-0.7-0.1-1.3-0.1h-3.2v4.3h-1.4V48.2L80.3,48.2z M99,49.6
		c0.7,1,1,2.1,1,3.5c0,1.5-0.4,2.8-1.1,3.8c-1,1.3-2.2,1.8-3.9,1.8c-1.7,0-2.9-0.4-3.8-1.5c-0.8-1-1.3-2.2-1.3-3.8
		c0-1.4,0.4-2.7,1.1-3.6c0.8-1.3,2.1-1.8,3.9-1.8C96.8,47.9,98,48.5,99,49.6L99,49.6z M97.8,56.2c0.6-0.8,0.8-2,0.8-3.1
		s-0.4-2.1-1-2.9C96.9,49.4,96.1,49,95,49c-1,0-1.8,0.4-2.5,1.1c-0.7,0.7-1.1,1.8-1.1,3.2c0,1.3,0.4,2.1,1,2.9
		c0.6,0.8,1.4,1.1,2.8,1.1C96.4,57.4,97.2,57,97.8,56.2z M7.4,48.5c1,0.4,1.5,1.4,1.8,2.8H7.8c-0.1-0.8-0.6-1.3-1-1.7
		C6.3,49.3,5.6,49,4.8,49c-0.8,0-1.7,0.4-2.4,1.1c-0.7,0.7-1,1.8-1,3.2c0,1.3,0.3,2.2,0.8,2.9c0.6,0.8,1.4,1.3,2.7,1.3
		c0.8,0,1.7-0.3,2.2-0.8c0.7-0.6,1-1.4,1-2.7H4.9v-1.1h4.5v5.5H8.5l-0.4-1.3c-0.4,0.4-0.8,0.8-1.3,1c-0.6,0.4-1.4,0.6-2.2,0.6
		c-1.3,0-2.4-0.4-3.2-1.1c-1-1-1.4-2.4-1.4-4.2c0-1.7,0.4-3.1,1.4-4.1c0.8-1,2-1.4,3.5-1.4C5.9,47.9,6.6,48,7.4,48.5L7.4,48.5z
		 M16.4,52.8c0.7,0,1.1-0.1,1.5-0.4c0.4-0.1,0.6-0.7,0.6-1.4c0-0.7-0.3-1.1-0.8-1.4c-0.3-0.1-0.6-0.3-1.1-0.3h-3.4v3.5H16.4z
		 M11.8,48.2h4.8c0.8,0,1.4,0,2,0.3c1,0.4,1.4,1.3,1.4,2.4c0,0.7-0.1,1.1-0.4,1.5c-0.1,0.4-0.6,0.7-1,1c0.4,0.1,0.7,0.4,0.8,0.7
		c0.3,0.1,0.4,0.7,0.4,1.3v1.4c0,0.4,0,0.7,0.1,0.8c0,0.3,0.1,0.6,0.4,0.7v0.1h-1.7c-0.1,0-0.1-0.1-0.1-0.3c0-0.1,0-0.4-0.1-0.8
		v-1.7c0-0.7-0.3-1.1-0.7-1.4c-0.3-0.1-0.7-0.1-1.3-0.1h-3.2v4.3h-1.4L11.8,48.2L11.8,48.2L11.8,48.2z M23.8,48.2v6.3
		c0,0.7,0.1,1.4,0.4,1.8c0.4,0.8,1.1,1.1,2.1,1.1c1.1,0,2-0.3,2.4-1.1c0.3-0.4,0.3-1.1,0.3-1.8v-6.3h1.5v5.7c0,1-0.2,2-0.6,2.9
		c-0.7,1.3-1.8,1.8-3.5,1.8c-1.8,0-2.9-0.6-3.6-1.8c-0.3-0.7-0.4-1.7-0.4-2.9v-5.7H23.8z M32.5,48.2h4.6c1,0,1.7,0.1,2.2,0.7
		c0.6,0.6,0.8,1.3,0.8,2.2c0,0.7-0.3,1.4-0.7,2.1c-0.6,0.6-1.4,0.8-2.4,0.8h-3.2v4.3h-1.4L32.5,48.2L32.5,48.2z M38,49.6
		c-0.3-0.1-0.7-0.3-1.3-0.3h-2.8v3.6h2.8c0.6,0,1.1-0.1,1.5-0.4c0.3-0.3,0.6-0.7,0.6-1.4C38.8,50.3,38.5,49.9,38,49.6L38,49.6z
		 M50.4,49.6c0.7,1,1,2.1,1,3.5c0,1.5-0.3,2.8-1.1,3.8c-0.8,1.3-2.2,1.8-3.9,1.8c-1.5,0-2.8-0.4-3.8-1.5c-0.7-1-1.1-2.2-1.1-3.8
		c0-1.4,0.3-2.7,1-3.6c0.8-1.3,2.2-1.8,3.9-1.8C48.2,47.9,49.6,48.5,50.4,49.6L50.4,49.6z M49.2,56.2c0.6-0.8,0.8-2,0.8-3.1
		s-0.3-2.1-1-2.9c-0.6-0.7-1.4-1.1-2.5-1.1s-2,0.4-2.7,1.1c-0.7,0.7-1,1.8-1,3.2c0,1.3,0.3,2.1,0.8,2.9c0.6,0.8,1.5,1.1,2.8,1.1
		S48.6,57,49.2,56.2L49.2,56.2z"/>
</g>
</svg>
